<svg width="50" height="51" viewBox="0 0 50 51" fill="none" xmlns="http://www.w3.org/2000/svg">
<g id="boxicon1-9659 1">
<path id="Vector" d="M1.44331 27.9581C0.550147 26.4111 0.550147 24.5051 1.44331 22.9581L11.0566 6.3075C11.9497 4.76048 13.6003 3.8075 15.3867 3.8075H34.6132C36.3996 3.8075 38.0502 4.76048 38.9433 6.3075L48.5566 22.9581C49.4497 24.5051 49.4497 26.4111 48.5566 27.9581L38.9433 44.6088C38.0502 46.1558 36.3996 47.1088 34.6132 47.1088H15.3867C13.6003 47.1088 11.9497 46.1558 11.0566 44.6088L1.44331 27.9581Z" fill="#1D255B"/>
<path id="Vector_2" d="M32.6898 16.9593C32.6898 16.0126 31.9083 15.2238 30.9705 15.2238H24.1252C24.1564 15.5078 24.1877 15.7918 24.1877 16.0758C24.1877 17.5904 23.7188 19.0104 22.9062 20.1779H28.5638C28.7513 20.1779 28.8763 20.3356 28.8763 20.4934V21.44C28.8763 21.6294 28.72 21.7556 28.5638 21.7556H21.3745C20.1867 22.6706 18.7177 23.2071 17.1235 23.2071C16.5608 23.2071 15.9982 23.144 15.4668 23.0178V33.8411C15.4668 34.7878 16.2483 35.5766 17.186 35.5766H25.563L32.6898 25.3529V16.9593ZM25.8443 30.938C25.8443 31.1274 25.688 31.2536 25.5318 31.2536H19.3115C19.1239 31.2536 18.9989 31.0958 18.9989 30.938V29.9914C18.9989 29.802 19.1552 29.6759 19.3115 29.6759H25.5005C25.688 29.6759 25.813 29.8336 25.813 29.9914V30.938H25.8443ZM28.8763 26.1733C28.8763 26.3626 28.72 26.4888 28.5638 26.4888H19.3115C19.1239 26.4888 18.9989 26.331 18.9989 26.1733V25.2266C18.9989 25.0373 19.1552 24.9111 19.3115 24.9111H28.5638C28.7513 24.9111 28.8763 25.0689 28.8763 25.2266V26.1733Z" fill="white"/>
<path id="Vector_3" d="M27.3467 35.3293L30.4412 37.538L35.6612 30.0595L32.5667 27.8508L27.3467 35.3293Z" fill="white"/>
<path id="Vector_4" d="M37.2876 26.8984L34.9432 25.226C34.7245 25.0681 34.4431 25.1313 34.2869 25.3521L33.2866 26.7721L36.4124 28.981L37.4126 27.561C37.5689 27.3401 37.5064 27.0246 37.2876 26.8984Z" fill="white"/>
<path id="Vector_5" d="M25.939 37.3474C25.8765 37.442 25.814 37.5998 25.8452 37.726L25.939 39.9033C25.9702 40.2819 26.3141 40.5344 26.6891 40.4398L28.7521 39.8086C28.8772 39.777 28.971 39.6824 29.0647 39.5877L29.7211 38.6411L26.5954 36.4323L25.939 37.3474Z" fill="white"/>
<path id="Vector_6" d="M22.6575 16.0458C22.6575 12.9534 20.1881 10.4606 17.1249 10.4606C14.0616 10.4606 11.5923 12.9534 11.5923 16.0458C11.5923 19.1381 14.0616 21.6625 17.1249 21.6625C20.1881 21.6625 22.6575 19.1381 22.6575 16.0458ZM16.4997 18.4439C16.2809 18.4439 16.0934 18.3493 15.9371 18.1915L14.343 16.4875C14.0616 16.172 14.0616 15.6986 14.3742 15.4146C14.6867 15.1306 15.1556 15.1306 15.437 15.4463L16.4685 16.5506L18.719 14.1209C19.0004 13.8054 19.5005 13.8054 19.7817 14.0894C20.0944 14.3734 20.0944 14.8783 19.813 15.1623L17.0624 18.1915C16.9061 18.3493 16.7185 18.4439 16.4997 18.4439Z" fill="white"/>
</g>
</svg>
