<svg width="61" height="62" viewBox="0 0 61 62" fill="none" xmlns="http://www.w3.org/2000/svg">
<g id="Clip path group">
<g id="Group">
<g id="Group_2">
<path id="Vector" d="M4.1268 53.301L4.12722 53.3004C4.99655 52.1532 6.09869 51.2016 7.36171 50.509L7.39919 50.4884L7.40657 50.4835C8.87094 49.6746 10.5449 49.2448 12.2467 49.2448C13.9616 49.2448 15.5764 49.6509 17.0588 50.4511L17.0588 50.4511L17.0636 50.4536C18.345 51.1364 19.4905 52.1191 20.3722 53.2934L20.4151 53.3505L20.4193 53.3547C21.6888 55.0498 22.3756 57.0628 22.4113 59.2002H2.09425C2.13042 57.0404 2.83128 55.0082 4.1268 53.301Z" stroke="#336699" stroke-width="2"/>
<g id="Vector_2">
<mask id="path-2-inside-1_96_878" fill="white">
<path d="M22.5163 59.3069C22.5115 57.1136 21.7898 54.9827 20.4608 53.2359L20.4555 53.2289C19.5642 52.0423 18.4242 51.0627 17.1156 50.36L17.1077 50.3565C15.6089 49.548 13.9735 49.1385 12.2464 49.1385C10.5193 49.1385 8.81371 49.578 7.323 50.4089L7.30989 50.4141C6.03537 51.1129 4.92344 52.0734 4.04599 53.2307L4.04249 53.2341C2.71345 54.981 1.99181 57.1136 1.98693 59.3069H22.5163ZM24.1688 61.0939H0.323942C0.248735 60.5247 0.196289 59.9656 0.196289 59.375C0.196289 56.6669 1.09355 54.1589 2.6147 52.1557C3.64324 50.7944 4.95026 49.6677 6.44867 48.8488C8.2205 47.862 10.2173 47.3466 12.2464 47.3516C14.3173 47.3516 16.26 47.8676 17.9593 48.7843C19.4997 49.6087 20.8403 50.7591 21.8877 52.1557C23.4088 54.1589 24.307 56.6669 24.307 59.375C24.307 59.9656 24.2423 60.5256 24.1688 61.0939Z"/>
</mask>
<path d="M22.5163 59.3069C22.5115 57.1136 21.7898 54.9827 20.4608 53.2359L20.4555 53.2289C19.5642 52.0423 18.4242 51.0627 17.1156 50.36L17.1077 50.3565C15.6089 49.548 13.9735 49.1385 12.2464 49.1385C10.5193 49.1385 8.81371 49.578 7.323 50.4089L7.30989 50.4141C6.03537 51.1129 4.92344 52.0734 4.04599 53.2307L4.04249 53.2341C2.71345 54.981 1.99181 57.1136 1.98693 59.3069H22.5163ZM24.1688 61.0939H0.323942C0.248735 60.5247 0.196289 59.9656 0.196289 59.375C0.196289 56.6669 1.09355 54.1589 2.6147 52.1557C3.64324 50.7944 4.95026 49.6677 6.44867 48.8488C8.2205 47.862 10.2173 47.3466 12.2464 47.3516C14.3173 47.3516 16.26 47.8676 17.9593 48.7843C19.4997 49.6087 20.8403 50.7591 21.8877 52.1557C23.4088 54.1589 24.307 56.6669 24.307 59.375C24.307 59.9656 24.2423 60.5256 24.1688 61.0939Z" fill="#336699"/>
<path d="M22.5163 59.3069V61.3069H24.5208L24.5163 59.3025L22.5163 59.3069ZM20.4608 53.2359L18.8619 54.4375L18.8691 54.4469L20.4608 53.2359ZM20.4555 53.2289L18.8564 54.43L18.8567 54.4305L20.4555 53.2289ZM17.1156 50.36L18.0617 48.598L17.9953 48.5623L17.9264 48.5318L17.1156 50.36ZM17.1077 50.3565L16.1581 52.1167L16.2261 52.1534L16.2968 52.1848L17.1077 50.3565ZM7.323 50.4089L8.06446 52.2664L8.18417 52.2186L8.29675 52.1558L7.323 50.4089ZM7.30989 50.4141L6.56843 48.5567L6.45527 48.6018L6.34843 48.6604L7.30989 50.4141ZM4.04599 53.2307L5.45874 54.6463L5.55635 54.5489L5.63967 54.439L4.04599 53.2307ZM4.04249 53.2341L2.62975 51.8185L2.5333 51.9147L2.4508 52.0231L4.04249 53.2341ZM1.98693 59.3069L-0.0130659 59.3025L-0.0175254 61.3069H1.98693V59.3069ZM24.1688 61.0939V63.0939H25.9271L26.1523 61.3501L24.1688 61.0939ZM0.323942 61.0939L-1.65882 61.3559L-1.42916 63.0939H0.323942V61.0939ZM2.6147 52.1557L4.20751 53.3652L4.21042 53.3614L2.6147 52.1557ZM6.44867 48.8488L7.4078 50.6038L7.4148 50.6L7.42178 50.5961L6.44867 48.8488ZM12.2464 47.3516L12.2415 49.3516H12.2464V47.3516ZM17.9593 48.7843L17.0097 50.5445L17.0155 50.5476L17.9593 48.7843ZM21.8877 52.1557L20.2876 53.3557L20.2949 53.3652L21.8877 52.1557ZM24.5163 59.3025C24.5105 56.6727 23.6452 54.1183 22.0525 52.0249L18.8691 54.4469C19.9345 55.8472 20.5124 57.5545 20.5163 59.3114L24.5163 59.3025ZM22.0596 52.0343L22.0543 52.0273L18.8567 54.4305L18.862 54.4375L22.0596 52.0343ZM22.0547 52.0278C20.989 50.609 19.6262 49.4381 18.0617 48.598L16.1694 52.1221C17.2222 52.6874 18.1394 53.4755 18.8564 54.43L22.0547 52.0278ZM17.9264 48.5318L17.9186 48.5283L16.2968 52.1848L16.3047 52.1883L17.9264 48.5318ZM18.0573 48.5964C16.2622 47.6279 14.2997 47.1385 12.2464 47.1385V51.1385C13.6472 51.1385 14.9557 51.468 16.1581 52.1167L18.0573 48.5964ZM12.2464 47.1385C10.1835 47.1385 8.14204 47.6627 6.34925 48.662L8.29675 52.1558C9.48538 51.4933 10.8551 51.1385 12.2464 51.1385V47.1385ZM6.58155 48.5514L6.56843 48.5567L8.05134 52.2716L8.06446 52.2664L6.58155 48.5514ZM6.34843 48.6604C4.82637 49.4948 3.49926 50.6415 2.45231 52.0223L5.63967 54.439C6.34763 53.5053 7.24436 52.7309 8.27135 52.1679L6.34843 48.6604ZM2.63324 51.815L2.62975 51.8185L5.45524 54.6498L5.45874 54.6463L2.63324 51.815ZM2.4508 52.0231C0.857879 54.1168 -0.00721595 56.6731 -0.0130659 59.3025L3.98692 59.3114C3.99083 57.5541 4.56901 55.8452 5.63419 54.4451L2.4508 52.0231ZM1.98693 61.3069H22.5163V57.3069H1.98693V61.3069ZM24.1688 59.0939H0.323942V63.0939H24.1688V59.0939ZM2.30671 60.8319C2.23789 60.3111 2.19629 59.8462 2.19629 59.375H-1.80371C-1.80371 60.0849 -1.74042 60.7384 -1.65882 61.3559L2.30671 60.8319ZM2.19629 59.375C2.19629 57.1143 2.94408 55.029 4.2075 53.3652L1.0219 50.9462C-0.756972 53.2887 -1.80371 56.2195 -1.80371 59.375H2.19629ZM4.21042 53.3614C5.0676 52.2269 6.1574 51.2872 7.4078 50.6038L5.48954 47.0938C3.74311 48.0482 2.21888 49.362 1.01899 50.95L4.21042 53.3614ZM7.42178 50.5961C8.89425 49.7761 10.5543 49.3474 12.2415 49.3516L12.2513 45.3516C9.88036 45.3458 7.54675 45.948 5.47555 47.1015L7.42178 50.5961ZM12.2464 49.3516C13.9806 49.3516 15.5976 49.7827 17.0098 50.5445L18.9088 47.024C16.9224 45.9524 14.654 45.3516 12.2464 45.3516V49.3516ZM17.0155 50.5476C18.299 51.2346 19.4156 52.1928 20.2877 53.3557L23.4877 50.9557C22.2651 49.3255 20.7003 47.9829 18.9031 47.021L17.0155 50.5476ZM20.2949 53.3652C21.5586 55.0294 22.307 57.1147 22.307 59.375H26.307C26.307 56.219 25.2591 53.2883 23.4805 50.9462L20.2949 53.3652ZM22.307 59.375C22.307 59.8268 22.2578 60.2769 22.1853 60.8376L26.1523 61.3501C26.2267 60.7743 26.307 60.1043 26.307 59.375H22.307Z" fill="#336699" mask="url(#path-2-inside-1_96_878)"/>
</g>
</g>
<g id="Group_3">
<path id="Vector_3" d="M12.2539 44.1927C14.4588 44.1927 16.2462 42.409 16.2462 40.2087C16.2462 38.0085 14.4588 36.2248 12.2539 36.2248C10.0491 36.2248 8.26172 38.0085 8.26172 40.2087C8.26172 42.409 10.0491 44.1927 12.2539 44.1927Z" stroke="#336699" stroke-width="3"/>
</g>
<g id="Group_4">
<path id="Vector_4" d="M40.4432 53.301L40.4436 53.3004C41.313 52.1532 42.4151 51.2016 43.6781 50.5089L43.7156 50.4884L43.723 50.4835C45.189 49.6737 46.863 49.2448 48.5631 49.2448C50.2454 49.2448 51.8274 49.6343 53.2846 50.4023L53.361 50.4429C53.366 50.4456 53.371 50.4483 53.3761 50.451L53.5001 50.518C54.729 51.194 55.8315 52.1524 56.6888 53.2936L56.7316 53.3505L56.7357 53.3547C58.0052 55.0497 58.692 57.0628 58.7278 59.2002H38.4107C38.4468 57.0404 39.1477 55.0081 40.4432 53.301Z" stroke="#336699" stroke-width="2"/>
<path id="Vector_5" d="M57.574 52.6316L57.5737 52.6312C57.5738 52.6313 57.5739 52.6315 57.574 52.6316Z" fill="#336699" stroke="#336699" stroke-width="2"/>
</g>
<g id="Group_5">
<g id="Group_6">
<path id="Vector_6" d="M49.2119 44.8299C51.4168 44.8299 53.2042 43.0463 53.2042 40.846C53.2042 38.6457 51.4168 36.862 49.2119 36.862C47.0071 36.862 45.2197 38.6457 45.2197 40.846C45.2197 43.0463 47.0071 44.8299 49.2119 44.8299Z" stroke="#336699" stroke-width="3"/>
</g>
<path id="Vector_7" d="M42.6189 7.67769H50.4346V27.9482H17.9102V22.7445" stroke="#336699" stroke-width="2" stroke-linecap="square"/>
</g>
<g id="Group_7">
<path id="Vector_8" d="M50.4288 31.5518L47.665 28.2031H50.4288V31.5518Z" fill="#021028"/>
<path id="Vector_9" d="M45.7656 27.3095H51.3229V34.0402L45.7656 27.3095Z" fill="#336699"/>
</g>
<g id="Group_8">
<path id="Vector_10" d="M8.5 1.91913H42.1707V22.4654H8.5V1.91913Z" stroke="#336699" stroke-width="2"/>
</g>
<g id="Group_9">
<path id="Vector_11" d="M7.60547 23.3571H13.1627L7.60547 30.0877V23.3571Z" fill="#336699"/>
<g id="Group_10">
<path id="Vector_12" d="M22.7062 8.91368C22.7062 8.91368 22.4375 6.27784 25.0223 6.16348C28.2007 6.02052 28.2171 8.67286 28.2171 8.67286C28.3156 9.49307 28.0612 10.3169 27.5168 10.9397C26.9724 11.5624 26.1889 11.9262 25.3607 11.9396C25.2761 11.9432 25.1967 11.9784 25.1377 12.0391C25.0788 12.0997 25.0452 12.1814 25.0442 12.2659V14.4612" stroke="#336699" stroke-width="2" stroke-linecap="round"/>
</g>
</g>
<path id="Vector_13" d="M25.1581 18.5006C25.4444 18.5006 25.6766 18.268 25.6766 17.9823C25.6766 17.6966 25.4444 17.4658 25.1581 17.4658C24.8718 17.4658 24.6396 17.6966 24.6396 17.9823C24.6396 18.268 24.8718 18.5006 25.1581 18.5006Z" fill="#336699" stroke="#336699" stroke-width="3.5"/>
</g>
</g>
</svg>
