<svg width="249" height="73" viewBox="0 0 249 73" fill="none" xmlns="http://www.w3.org/2000/svg">
<g id="g2303">
<path id="path46" d="M94.1947 30.92C94.1947 23.3496 92.0491 19.3925 87.6948 19.1939C85.9511 19.1261 84.2753 19.3974 82.6673 19.9979C81.3256 20.4678 80.4538 20.9376 79.9888 21.4074V39.5656C82.7351 41.3092 85.2149 42.1132 87.3606 41.9776C91.9183 41.7112 94.1947 38.0253 94.1947 30.92ZM99.5564 31.2542C99.5564 35.1386 98.6168 38.3595 96.8102 40.9023C94.8002 43.7842 91.9861 45.2566 88.368 45.3244C85.6896 45.3922 82.8707 44.5882 79.9937 42.7768V59.2639L75.3682 57.5881V21.0005C76.1044 20.0609 77.1118 19.2569 78.3178 18.5885C81.0641 16.9805 84.4836 16.1765 88.4358 16.1086L88.5036 16.1765C92.1217 16.1086 94.9358 17.5859 96.878 20.5985C98.6168 23.3496 99.5564 26.8999 99.5564 31.2542Z" fill="#646464"/>
<path id="path48" d="M127.967 42.1132C127.967 47.2715 127.43 50.8896 126.427 52.9045C125.357 54.9145 123.41 56.5225 120.465 57.6608C118.121 58.6004 115.505 59.1332 112.759 59.201L112.023 56.2513C114.837 55.8493 116.779 55.5151 117.922 55.1131C120.198 54.3769 121.743 53.1709 122.548 51.6306C123.216 50.3568 123.555 47.9448 123.555 44.3267V43.1207C120.407 44.5931 117.055 45.2663 113.573 45.2663C111.296 45.2663 109.286 44.5301 107.542 43.1207C105.6 41.5805 104.593 39.5704 104.593 37.1584V17.7942L109.218 16.1862V35.6181C109.218 37.696 109.887 39.304 111.228 40.4422C112.57 41.5805 114.309 42.1181 116.454 42.0503C118.6 41.9825 120.877 41.1784 123.289 39.5704V16.8546H127.914V42.1181H127.967V42.1132Z" fill="#646464"/>
<path id="path50" d="M146.131 45.058C145.593 45.1258 145.061 45.1258 144.591 45.1258C141.975 45.1258 139.902 44.5204 138.425 43.2514C136.953 41.9776 136.212 40.2339 136.212 38.0253V19.7315H132.996V16.7819H136.212V9.00811L140.837 7.33228V16.7819H146.063V19.7315H140.837V37.9575C140.837 39.7012 141.307 40.975 142.247 41.6434C143.051 42.2488 144.324 42.583 146.068 42.6508V45.0629H146.131V45.058Z" fill="#646464"/>
<path id="path52" d="M174.344 44.656H169.719V26.6965C169.719 24.885 169.317 23.277 168.445 22.008C167.438 20.5356 166.101 19.7945 164.357 19.7945C162.211 19.7945 159.533 20.9327 156.385 23.1462V44.656H151.759V1.69934L156.385 0.226929V19.7945C159.334 17.6489 162.618 16.5785 166.101 16.5785C168.581 16.5785 170.591 17.3825 172.063 19.0583C173.603 20.7342 174.34 22.7442 174.34 25.2241V44.656H174.344Z" fill="#646464"/>
<path id="path54" d="M199.07 30.1837C199.07 27.234 198.532 24.822 197.394 22.9475C196.052 20.6033 194.042 19.3973 191.296 19.2617C186.206 19.528 183.658 23.2139 183.658 30.1837C183.658 33.3997 184.195 36.083 185.266 38.2238C186.608 40.9701 188.685 42.3117 191.432 42.2439C196.454 42.3117 199.07 38.2238 199.07 30.1837ZM204.16 30.2515C204.16 34.4072 203.09 37.8896 200.944 40.6407C198.6 43.7212 195.384 45.2662 191.296 45.2662C187.208 45.2662 184.06 43.726 181.716 40.6407C179.638 37.8945 178.567 34.4072 178.567 30.2515C178.567 26.367 179.706 23.0832 181.919 20.3999C184.263 17.5858 187.416 16.1134 191.301 16.1134C195.185 16.1134 198.338 17.5229 200.75 20.3999C203.022 23.0105 204.16 26.2944 204.16 30.2515Z" fill="#646464"/>
<path id="path56" d="M230.834 44.6559H226.208V25.6938C226.208 23.6159 225.603 22.0079 224.334 20.8019C223.06 19.6637 221.384 19.0582 219.306 19.126C217.093 19.1938 215.02 19.8623 213.005 21.2717V44.6608H208.379V20.7389C211.058 18.7967 213.538 17.5229 215.751 16.9174C217.897 16.3798 219.771 16.1134 221.379 16.1134C222.45 16.1134 223.525 16.249 224.528 16.4476C226.339 16.8496 227.811 17.6536 229.017 18.7918C230.291 20.0657 230.96 21.6059 230.96 23.3495V44.6608H230.834V44.6559Z" fill="#646464"/>
<path id="path1948" d="M29.3939 1.97051C26.9818 1.97051 24.7054 2.17394 22.6905 2.57594C16.7912 3.64635 15.7208 5.79201 15.7208 9.87989V15.2416H29.7281V17.0531H15.7256H10.4995C6.41163 17.0531 2.86137 19.4651 1.72315 24.1584C0.449322 29.5201 0.381514 32.804 1.72315 38.3643C2.7306 42.52 5.07483 45.4697 9.16272 45.4697H13.9868V38.9601C13.9868 34.3346 18.0069 30.2467 22.7632 30.2467H36.7705C40.6549 30.2467 43.7402 27.0306 43.7402 23.1413V9.80724C43.7402 5.98575 40.5242 3.17169 36.7705 2.5033C34.2858 2.10613 31.8108 1.9027 29.3939 1.97051ZM21.8235 6.26182C23.296 6.26182 24.439 7.46785 24.439 8.94026C24.439 10.4127 23.233 11.6187 21.8235 11.6187C20.3511 11.6187 19.2081 10.4127 19.2081 8.94026C19.2081 7.40004 20.3511 6.26182 21.8235 6.26182Z" fill="url(#paint0_linear_153_4397)"/>
<path id="path1950" d="M45.4112 16.9126V23.1462C45.4112 27.9703 41.3233 31.9903 36.6348 31.9903H22.6953C18.8738 31.9903 15.7256 35.2742 15.7256 39.0957V52.4298C15.7256 56.2513 19.0095 58.4599 22.6953 59.5351C27.1174 60.8089 31.4087 61.0753 36.7026 59.5351C40.2529 58.5277 43.6724 56.4547 43.6724 52.4298V47.068H29.6651V45.2566H43.6724H50.6421C54.73 45.2566 56.2024 42.4425 57.6119 38.1512C59.0843 33.7969 59.0213 29.5734 57.6119 23.9453C56.6044 19.9253 54.6622 16.84 50.6421 16.84H45.4112V16.9126ZM37.5696 50.691C39.042 50.691 40.1851 51.897 40.1851 53.3694C40.1851 54.8418 38.9791 56.0478 37.5696 56.0478C36.0972 56.0478 34.9541 54.8418 34.9541 53.3694C34.959 51.8292 36.0972 50.691 37.5696 50.691Z" fill="url(#paint1_linear_153_4397)"/>
<path id="text3004" d="M239.882 12.6262H240.686V7.53573H242.628V6.9303H237.939V7.53573H239.882V12.6262ZM243.364 12.6262H244.033V7.93774L245.573 12.6262H246.377L247.985 8.0007V12.6262H248.726V6.9303H247.718L245.975 11.8222L244.502 6.9303H243.364V12.6262Z" fill="#646464"/>
<path id="path1894" opacity="0.4438" d="M48.6273 68.6458C48.6273 70.6558 40.2529 72.2638 29.8637 72.2638C19.4745 72.2638 11.1001 70.6558 11.1001 68.6458C11.1001 66.6357 19.4745 65.0277 29.8637 65.0277C40.2529 65.0277 48.6273 66.6357 48.6273 68.6458Z" fill="url(#paint2_radial_153_4397)"/>
</g>
<defs>
<linearGradient id="paint0_linear_153_4397" x1="-0.732377" y1="3.63458" x2="31.5566" y2="31.1459" gradientUnits="userSpaceOnUse">
<stop stop-color="#5A9FD4"/>
<stop offset="1" stop-color="#306998"/>
</linearGradient>
<linearGradient id="paint1_linear_153_4397" x1="43.6826" y1="48.2748" x2="32.0985" y2="32.044" gradientUnits="userSpaceOnUse">
<stop stop-color="#FFD43B"/>
<stop offset="1" stop-color="#FFE873"/>
</linearGradient>
<radialGradient id="paint2_radial_153_4397" cx="0" cy="0" r="1" gradientUnits="userSpaceOnUse" gradientTransform="translate(29.8651 68.6239) rotate(-90) scale(3.63763 15.9926)">
<stop stop-color="#B8B8B8"/>
<stop offset="1" stop-color="#7F7F7F"/>
</radialGradient>
</defs>
</svg>
