<svg width="81" height="62" viewBox="0 0 81 62" fill="none" xmlns="http://www.w3.org/2000/svg">
<g id="Group 18938">
<g id="Group 18151">
<path id="Path 15224" d="M40.7518 37.8804L29.624 33.2551V20.4619L40.7503 25.0864L40.7518 37.8804Z" stroke="#336699" stroke-width="3" stroke-linecap="round" stroke-linejoin="round"/>
<path id="Path 15225" d="M40.7485 37.8804L51.8733 33.2551V20.4619L40.7485 25.0833V37.8804Z" stroke="#336699" stroke-width="3" stroke-linecap="round" stroke-linejoin="round"/>
<path id="Path 15226" d="M29.624 20.4598L40.7503 15.836L51.8765 20.4598L40.7503 25.0843L29.624 20.4598Z" stroke="#336699" stroke-width="3" stroke-linecap="round" stroke-linejoin="round"/>
</g>
<g id="Group 18711">
<g id="Group 18708">
<g id="Group 18707">
<path id="Path 16147" d="M6.12345 57.3874C8.93854 52.8867 7.3664 48.8097 6.64399 46.4806C5.56978 43.0136 4.04208 39.7003 2.92946 36.2437C1.81683 32.7872 1.12154 29.1004 1.7754 25.5291C2.67258 20.633 5.74153 17.0159 8.54532 12.897C11.0757 9.17862 13.1405 5.79551 15.4712 2.30444C15.641 2.05439 15.8776 1.85657 16.1542 1.73306C16.4308 1.60955 16.7366 1.56536 17.0371 1.60542C17.3375 1.64548 17.6208 1.76816 17.8551 1.95978C18.0894 2.15141 18.2653 2.40438 18.3631 2.69013C18.5934 3.4138 18.6856 4.17404 18.635 4.93151C18.4112 6.66364 17.9043 8.34764 17.1345 9.91681C15.7775 13.0093 14.6177 16.1838 13.6617 19.4215" stroke="#336699" stroke-width="2" stroke-miterlimit="10" stroke-linecap="round"/>
<path id="Path 16148" d="M13.1207 35.3031C12.5989 32.7062 12.1841 30.091 11.8763 27.4576C11.7363 26.746 11.7775 26.0109 11.996 25.3191C12.5678 23.9247 14.4164 23.4948 15.8861 23.8444C16.6496 24.0297 17.3684 24.3644 18.0007 24.8291C18.633 25.2937 19.1661 25.8789 19.569 26.5507C20.4526 28.042 20.6236 29.8266 21.0003 31.5166C22.0865 36.3706 23.0786 38.4643 23.8093 43.3836C24.6929 49.3328 21.1893 53.4674 19.5788 57.0357" stroke="#336699" stroke-width="2" stroke-miterlimit="10" stroke-linecap="round"/>
<path id="Path 16149" d="M4.60182 55.5699C4.93477 55.5699 20.6147 57.0341 20.6147 57.0341L20.2004 61.6024L4.1875 60.1974L4.60182 55.5699Z" fill="#336699"/>
</g>
</g>
<g id="Group 18710">
<g id="Group 18709">
<path id="Path 16150" d="M75.3673 57.3874C72.5507 52.8867 74.1244 48.8097 74.8453 46.4806C75.921 43.0136 77.4472 39.7003 78.5598 36.2437C79.6725 32.7872 80.3677 29.1004 79.7154 25.5291C78.8182 20.633 75.7493 17.0159 72.9455 12.897C70.4151 9.17862 68.3503 5.79551 66.0196 2.30444C65.8498 2.05439 65.6132 1.85657 65.3366 1.73306C65.06 1.60955 64.7542 1.56536 64.4537 1.60542C64.1533 1.64548 63.87 1.76816 63.6357 1.95978C63.4014 2.15141 63.2255 2.40438 63.1277 2.69013C62.8974 3.4138 62.8052 4.17404 62.8558 4.93151C63.079 6.66378 63.5859 8.34788 64.3563 9.91681C65.7133 13.0093 66.8731 16.1838 67.829 19.4215" stroke="#336699" stroke-width="2" stroke-miterlimit="10" stroke-linecap="round"/>
<path id="Path 16151" d="M68.37 35.3031C68.8902 32.7062 69.3046 30.091 69.6129 27.4576C69.7542 26.7461 69.7135 26.0109 69.4946 25.3191C68.9214 23.9247 67.0743 23.4948 65.6031 23.8444C64.8397 24.0295 64.1211 24.3642 63.489 24.8289C62.8569 25.2936 62.3241 25.8788 61.9217 26.5507C61.0381 28.042 60.8671 29.8266 60.4904 31.5166C59.4042 36.3706 58.4106 38.4643 57.6799 43.3836C56.7977 49.3328 60.2998 53.4674 61.9119 57.0357" stroke="#336699" stroke-width="2" stroke-miterlimit="10" stroke-linecap="round"/>
<path id="Path 16152" d="M76.8855 55.5699C76.554 55.5699 60.8726 57.0341 60.8726 57.0341L61.2884 61.6024L77.3013 60.1974L76.8855 55.5699Z" fill="#336699"/>
</g>
</g>
</g>
</g>
</svg>
