<svg width="145" height="63" viewBox="0 0 145 63" fill="none" xmlns="http://www.w3.org/2000/svg">
<g id="Group 18765">
<path id="Vector" d="M20.692 55.4981C18.0534 53.4142 15.2388 51.425 13.3173 48.624C9.27132 43.6849 6.14551 37.9746 4.02104 31.953C2.73553 28.0559 2.30252 23.8611 0.638125 20.0857C-1.09393 17.3659 0.935821 14.3754 3.92632 13.5093C5.25242 13.2522 7.60693 11.9938 4.76528 12.9004C2.23486 14.7543 1.99129 11.209 4.58937 10.9789C6.36202 10.7489 7.01154 9.28747 6.40261 7.98843C4.50818 6.74352 11.0304 5.39035 7.74224 3.52298C4.31874 -0.157626 12.5189 -0.874803 10.5027 3.30648C10.0156 6.52701 16.2266 2.72462 14.7922 6.44582C16.2537 8.232 20.2726 6.85177 20.1643 9.35513C22.3023 9.50398 23.033 11.2902 25.0357 11.4255C27.1196 12.3727 30.8814 13.1034 31.585 15.4444C29.5282 17.0817 24.7515 12.0885 24.5215 16.5946C25.144 23.2521 24.9816 30.1262 27.4173 36.4726C28.581 40.3156 31.3685 43.3467 33.8989 46.3371C36.3076 49.2735 39.5822 51.3303 42.9245 53.0759C45.8609 54.4561 49.0138 55.3628 52.2073 55.9446C53.4928 54.9568 55.7796 51.2762 57.7958 52.8323C57.8906 54.5644 53.7905 56.4724 57.6064 56.2829C59.8391 55.6063 61.3953 58.015 63.2491 55.8499C64.9406 57.8526 70.3126 54.5644 69.0948 58.678C67.4574 59.72 65.0759 59.0975 63.4385 60.5319C60.7457 59.1922 58.5942 61.7362 55.6037 61.4249C52.2885 62.0068 48.9055 62.2639 45.5497 62.2639C40.0288 61.8309 34.3996 61.6415 29.1493 59.7335C26.1724 58.8539 23.2901 57.176 20.692 55.4981ZM25.3469 57.5143C28.2292 58.7592 31.0708 60.0718 34.2372 60.4777C39.2575 61.1678 44.4401 62.2504 49.4874 61.2626C47.2141 60.2206 44.846 61.6685 42.5727 60.5183C39.8393 61.1002 36.93 60.3695 34.1425 60.0177C31.0032 58.6239 27.5932 57.6496 24.6298 55.8228C20.9491 54.4832 26.5377 57.5414 27.5391 57.812C29.8394 59.1246 24.9951 57.1354 24.3321 56.5941C22.4106 55.5116 22.1535 55.7416 24.1426 56.8242C24.535 57.0542 24.9274 57.3113 25.3469 57.5143ZM19.8531 53.6172C22.6541 54.6591 19.8395 51.6551 18.554 51.831C17.9857 50.8567 16.389 50.2207 17.5121 49.7065C15.4688 50.4102 15.3876 47.0273 14.4269 47.5009C12.2753 46.8243 13.5879 44.4292 11.0304 42.9407C10.8004 41.371 8.48649 40.0179 7.74224 37.6634C7.41748 36.4726 5.14417 33.0085 6.53793 36.2155C7.72871 39.3142 9.83965 41.9664 11.5852 44.6186C12.9519 47.1355 14.5487 49.7742 17.0385 51.3439C17.8639 52.1422 18.6758 53.3736 19.8531 53.6172ZM11.7882 44.7675C11.8829 44.348 12.3024 45.6876 11.7882 44.7675V44.7675ZM23.1954 54.8621C22.3158 54.5238 23.8179 54.5915 23.1954 54.8621V54.8621ZM24.7245 55.4169C24.0208 55.8364 24.5621 54.6591 24.7245 55.4169V55.4169ZM26.6324 56.2153C25.2251 55.674 27.5255 55.3492 26.6324 56.2153V56.2153ZM29.8936 58.0285C28.1209 57.7308 30.4484 57.2166 29.8936 58.0285V58.0285ZM23.6284 53.6713C21.8016 53.6578 25.0357 52.7512 23.6284 53.6713V53.6713ZM25.0492 54.375C24.5486 54.5915 25.0222 53.8878 25.0492 54.375V54.375ZM32.1804 58.8269C33.3306 59.544 38.8786 60.4101 35.401 59.1246C34.8326 59.2463 28.9599 57.4602 32.1804 58.8269ZM20.868 50.0178C19.0818 49.4765 20.7597 49.5306 20.868 50.0178V50.0178ZM24.1832 51.9393C22.3835 51.4792 25.0492 51.3439 24.1832 51.9393V51.9393ZM26.9843 53.6578C24.968 53.1842 28.2156 53.1977 26.9843 53.6578V53.6578ZM19.5148 48.5293C20.8544 49.5712 24.941 48.6646 21.5716 47.9203C20.0425 47.0949 16.5919 46.5401 18.9329 48.4075L19.5148 48.5293ZM28.8652 54.2532C26.5242 53.6984 29.42 53.2924 28.8652 54.2532V54.2532ZM26.0235 51.9798C29.3117 52.9135 23.2631 49.9095 25.2116 51.6416L25.6446 51.831L26.0235 51.9798ZM31.7203 55.2816C28.9058 54.8486 34.8326 55.3086 31.7203 55.2816V55.2816ZM18.324 46.7296C17.5527 46.7837 18.2022 46.1612 18.324 46.7296V46.7296ZM36.9977 58.2315C35.9828 59.0163 37.0653 57.1895 36.9977 58.2315V58.2315ZM23.6284 49.9907C22.6541 49.9636 23.439 49.4359 23.6284 49.9907V49.9907ZM18.6082 46.3642C16.1725 45.5794 20.3943 46.2695 18.6082 46.3642V46.3642ZM12.6542 42.5212C10.7192 40.9921 12.4513 41.6687 12.6542 42.5212V42.5212ZM28.2833 52.4535C27.945 52.061 28.1209 52.5211 28.2833 52.4535V52.4535ZM37.9855 58.3939C37.4713 58.6104 37.9584 57.8391 37.9855 58.3939V58.3939ZM27.4173 51.5604C25.8882 51.3303 27.5932 50.8161 27.4173 51.5604V51.5604ZM20.1778 46.9596C18.0534 46.0665 21.5039 46.8243 20.1778 46.9596V46.9596ZM32.424 54.5644C30.3942 54.1584 34.4943 53.7525 32.424 54.5644V54.5644ZM26.0506 50.2478C28.4457 50.5455 23.2089 48.624 25.5228 50.0854L26.0506 50.2478ZM34.359 55.3628C36.5917 54.0231 35.861 58.4886 38.1479 55.7281C40.4077 54.0773 36.1993 57.7714 38.9868 56.0258C40.9895 54.6862 43.9665 56.6618 45.8474 57.3113C47.2006 57.2437 48.5131 58.4886 49.8934 57.7308C52.5591 57.0136 44.6837 56.6753 46.754 55.4034C44.3183 56.107 42.5186 54.5509 41.3143 52.9947C38.5674 52.3587 35.4145 50.965 34.0478 48.5428C33.4795 47.6362 34.8462 48.6781 33.5606 47.1896C31.9098 45.7282 31.0844 44.0503 29.9883 42.2777C28.6757 41.574 28.5133 39.5037 28.378 42.21C28.3916 40.4915 26.7813 39.3413 26.3889 39.8284C26.3753 38.1776 28.1074 39.003 26.8895 37.7851C26.6324 36.0666 25.7664 34.294 25.5093 32.3589C25.1169 31.4388 25.4552 29.4496 24.1426 31.547C23.669 33.7662 23.9802 28.8137 24.7245 30.451C25.6988 28.7866 24.3727 28.976 24.3185 29.2061C24.9545 27.7988 24.7245 25.7961 24.1561 26.5539C24.4944 25.0654 24.6974 21.06 23.6555 21.7772C24.2915 20.221 24.8463 14.646 22.1264 16.7705C21.0168 16.784 19.0953 17.1764 18.1887 17.623C21.0303 19.1926 17.891 18.1913 16.7408 17.9342C16.5919 19.3821 15.4418 18.7596 14.0074 18.7732C16.2943 19.0573 12.8843 21.1006 11.5717 20.3158C9.86671 21.1277 13.0467 23.1574 11.5988 23.7934C11.7747 24.7406 9.00069 23.4551 9.20366 25.6472C7.5528 24.9436 8.97363 28.2453 9.79906 27.1357C12.6136 27.8935 11.7882 29.6256 11.8559 31.2899C11.4093 32.2507 9.59608 29.0302 11.4635 29.1655C10.002 26.7839 9.83965 28.313 8.60827 29.409C8.32411 29.4902 11.7341 30.9922 9.59608 31.7365C11.4635 32.0207 11.5311 33.6715 11.8965 34.6999C13.0196 35.8772 12.8031 33.4009 14.1562 34.8217C13.3038 33.5633 9.63668 31.2764 12.573 32.0071C12.5595 30.7487 12.0453 29.7203 12.9384 29.7473C13.845 28.1235 12.0047 33.7527 14.0209 31.6824C14.5893 31.4388 14.7246 30.0586 15.7395 31.8041C17.2009 33.252 16.2537 34.2804 14.2104 32.9679C14.5757 34.2128 16.9573 34.6729 16.5108 36.6214C16.9844 38.3535 17.6474 37.704 18.2293 37.6092C18.6758 39.2736 18.9329 38.0422 18.96 37.2439C21.0439 37.6904 20.5432 38.9218 21.2062 39.7878C22.6406 40.4238 19.1494 35.39 21.6257 38.2723C24.2103 40.6133 22.6 41.5875 20.259 41.2086C21.734 41.1004 22.2076 43.2113 24.0479 43.1301C25.7258 43.9285 26.8625 47.0002 23.9667 45.7282C22.9654 44.8216 19.4065 43.6985 22.3158 45.4305C24.9951 46.6754 27.1196 47.4197 29.7177 48.9758C31.558 50.2884 32.3699 51.8175 33.06 52.1152C31.5038 52.8594 28.3645 51.5198 30.6919 51.1138C29.244 50.8567 27.6202 50.126 29.0005 51.9257C30.1777 52.9135 33.1818 52.8053 33.723 52.9135C33.263 53.9149 32.4781 53.9961 33.7501 54.0773C32.3834 54.808 34.2372 54.9297 34.359 55.3628ZM31.4903 47.2438C30.6378 46.3371 30.4078 44.6728 31.3279 46.1206C31.8015 46.3236 32.857 48.8676 31.4903 47.2438ZM40.8407 53.1842C40.8542 53.5901 41.3684 53.1571 40.8407 53.1842V53.1842ZM30.1371 45.0516C30.0965 43.712 30.4484 46.0936 30.1371 45.0516V45.0516ZM29.2035 43.8067C28.1345 41.7364 30.5701 44.4021 29.2035 43.8067V43.8067ZM17.9451 36.026C18.2563 37.1086 18.5811 35.8636 17.9451 36.026V36.026ZM26.9166 40.8974C27.2955 39.436 27.3631 42.1153 26.9166 40.8974V40.8974ZM20.5703 36.4996C20.1372 35.6877 21.5039 37.2439 20.5703 36.4996V36.4996ZM26.01 38.2317C24.9951 35.9584 26.7272 36.9868 26.24 38.6106L26.01 38.2317ZM16.6461 31.9801C16.1995 31.2358 15.4418 29.0437 15.6853 28.3671C15.9018 29.4496 17.9992 33.0626 16.7137 29.8556C15.2929 27.1763 18.4187 30.7216 18.7435 31.3982C18.8923 32.0612 17.8639 31.2223 18.554 32.7784C17.2821 31.0058 17.7963 33.7662 16.6461 31.9801ZM13.7368 29.9909C13.8586 28.2453 14.3998 31.1817 13.7368 29.9909V29.9909ZM15.0493 30.4375C15.6718 29.1249 16.0913 32.2642 15.0493 30.4375V30.4375ZM11.91 28.0153C10.8275 26.9463 10.0562 25.9585 11.9506 27.3522C12.6948 27.3793 10.3268 25.106 12.1265 26.6351C14.048 26.9733 13.0737 29.7473 11.91 28.0153ZM13.5609 27.9747C13.8856 28.5836 14.1968 27.3522 13.5609 27.9747V27.9747ZM14.5757 28.2994C13.6285 26.5133 15.7259 29.0437 14.5757 28.2994V28.2994ZM12.5595 26.3644C9.42017 23.5769 16.5108 27.8258 13.0602 26.8786L12.5595 26.3644ZM21.5445 31.5876C20.1778 30.7757 21.1792 25.8638 21.6393 29.2196C22.9518 28.7866 21.5581 30.9517 22.5459 30.9381C22.397 32.3048 21.964 32.792 21.5445 31.5876ZM24.8598 33.5497C24.9951 32.0748 25.144 34.5646 24.8598 33.5497V33.5497ZM24.2779 32.9814C24.2915 33.7256 24.4268 32.3454 24.2779 32.9814V32.9814ZM13.182 25.4578C11.1658 22.6703 19.0276 28.2589 14.4675 26.1614C13.9939 26.0261 13.412 25.9855 13.182 25.4578ZM19.5689 28.8542C19.3795 26.4997 20.0019 29.2331 19.5689 28.8542V28.8542ZM24.4268 31.9665C24.4538 32.8461 24.8057 30.6269 24.4268 31.9665V31.9665ZM13.4797 24.3888C14.6705 24.1317 18.4458 26.4862 14.9817 25.0654C14.6028 24.6459 13.7909 24.8353 13.4797 24.3888ZM23.7502 29.5173C23.8855 27.1222 24.4674 28.0829 23.7637 29.8556L23.7502 29.5173ZM14.3728 23.5634C14.8599 22.8597 13.0737 20.3293 14.6299 22.6567C15.2929 23.1845 16.5649 23.5498 15.4418 23.7799C17.2144 25.336 15.0223 24.1994 14.3728 23.5634ZM23.2495 28.7731C23.5472 30.3563 23.5878 26.0397 23.2495 28.7731V28.7731ZM13.3579 21.0465C13.5473 21.5472 13.7368 20.8841 13.3579 21.0465V21.0465ZM15.6718 22.4267C16.2672 21.1683 16.7679 23.8205 15.6718 22.4267V22.4267ZM22.1941 26.0667C22.1941 25.5796 22.3158 26.7568 22.1941 26.0667V26.0667ZM21.8287 25.2142C20.9221 22.9815 22.6812 26.405 21.8287 25.2142V25.2142ZM21.2604 23.7528C21.1115 22.8327 21.7881 24.9165 21.2604 23.7528V23.7528ZM22.1805 22.2779C21.5581 21.1818 22.9654 17.4471 23.1142 19.761C22.4647 21.5607 22.9383 22.5756 23.3848 20.1534C24.2238 18.2454 23.1954 23.9287 22.1805 22.2779ZM23.1007 16.7299C23.1683 17.1223 23.3713 16.3916 23.1007 16.7299V16.7299ZM21.5581 47.3656C21.1792 47.0408 21.5987 47.5685 21.5581 47.3656V47.3656ZM24.7651 48.9758C26.5377 49.4359 26.5377 48.7052 24.9274 48.4887C24.0614 47.6768 21.328 46.8243 23.7773 48.3804C23.9261 48.7999 24.4403 48.7864 24.7651 48.9758ZM18.4323 44.781C19.4065 45.5117 22.1129 46.8514 19.8125 45.0516C20.5838 44.1586 18.3375 43.6714 19.0818 43.076C17.1873 41.8988 17.5798 42.0205 18.9194 42.0476C16.619 41.0192 19.2442 41.1004 19.1224 40.5727C18.2293 40.4103 14.7381 39.0165 16.7949 40.6809C14.6975 39.6254 16.2943 41.0869 15.6583 40.9245C13.5203 40.3426 17.5662 42.5618 15.32 42.007C16.5514 42.9813 18.6352 44.4968 15.8342 43.0354C15.4824 43.5767 17.8504 44.3751 18.4323 44.781ZM21.7881 46.7025C19.7854 45.0922 25.8476 48.0151 21.7881 46.7025V46.7025ZM38.9192 57.0948C38.3644 57.7849 38.9733 56.2829 38.9192 57.0948V57.0948ZM40.6918 57.8391C41.6255 56.9324 40.7324 59.2869 42.248 57.609C42.2615 56.4182 42.2074 55.7011 40.5024 57.1625C40.0288 57.4196 39.8258 58.5292 40.6918 57.8391ZM12.7084 40.2614C10.6921 39.1248 12.4242 39.1248 12.7084 40.2614V40.2614ZM14.5893 41.5063C12.0994 40.4509 13.8856 40.3426 14.5893 41.5063V41.5063ZM25.3063 47.9609C26.3483 48.8811 30.1101 48.6375 26.5783 48.0692C26.0506 47.2979 23.2495 47.4873 25.3063 47.9609ZM40.0152 57.0407C38.4591 57.6496 41.6255 55.6875 40.0152 57.0407V57.0407ZM43.3576 59.3411C42.6674 59.5305 43.3711 58.9081 43.3576 59.3411V59.3411ZM43.3576 58.7457C41.639 58.8539 45.1437 56.8512 43.3576 58.7457V58.7457ZM8.08054 36.3914C6.56499 34.2263 7.13332 33.252 5.6719 31.4929C5.40127 30.1262 3.16854 27.0545 4.52171 30.3157C5.76662 32.2101 6.13198 35.1465 8.08054 36.3914ZM42.8163 58.1232C41.4631 57.2166 46.091 56.0258 42.8163 58.1232V58.1232ZM45.3197 59.111C44.2777 58.8269 46.957 57.7173 45.3197 59.111V59.111ZM12.1536 37.8663C10.9492 37.7716 12.6272 37.1762 12.1536 37.8663V37.8663ZM44.7784 58.448C46.3616 57.4196 44.413 57.582 44.4942 58.5427L44.7784 58.448ZM23.2225 44.8487C22.3835 44.9028 23.1683 44.1586 23.2225 44.8487V44.8487ZM24.5486 45.62C23.899 45.7553 24.1291 44.7539 24.5486 45.62V45.62ZM47.3494 59.1516C49.3792 57.6767 46.1045 58.8539 46.9164 59.4223L47.3494 59.1516ZM46.5646 58.7592C44.8055 59.3817 48.229 57.379 46.5646 58.7592V58.7592ZM50.5429 61.4114C49.1897 61.1814 51.666 60.6672 50.5429 61.4114V61.4114ZM13.182 37.3657C14.6705 37.7039 19.1494 41.0463 16.5108 37.5957C15.1576 37.1897 15.9695 33.888 14.5757 34.4699C15.4959 36.0125 15.347 36.6755 13.3985 35.7013C10.9492 34.524 12.0182 36.2967 12.4919 36.7838C11.8559 36.9326 13.3714 37.3521 13.182 37.3657ZM6.37555 31.9936C6.63265 30.884 3.91279 25.9179 5.07651 29.5038C5.50952 30.248 5.46893 31.6824 6.37555 31.9936ZM18.8517 39.6931C18.0804 39.0571 18.8111 39.5984 18.8517 39.6931V39.6931ZM20.7462 40.1396C18.6623 39.666 20.7462 38.9624 20.7462 40.1396V40.1396ZM37.1465 50.4778C35.9152 50.4508 36.8353 49.6795 37.1465 50.4778V50.4778ZM37.9449 51.0462C37.4848 51.1274 37.8231 50.5996 37.9449 51.0462V51.0462ZM44.4401 55.1463C43.6688 55.0921 45.0625 54.6726 44.4401 55.1463V55.1463ZM9.77199 32.8596C7.86403 32.3725 11.5717 32.1695 9.77199 32.8596V32.8596ZM35.7122 49.2059C34.562 49.49 35.6851 48.0421 35.7122 49.2059V49.2059ZM9.06835 31.2223C7.99935 30.9517 10.2185 30.8163 9.06835 31.2223V31.2223ZM12.3971 32.8326C12.0453 32.9814 12.3836 32.4401 12.3971 32.8326V32.8326ZM53.0733 57.7714C54.5482 57.4737 57.9176 58.5292 58.4589 57.379C56.6727 57.3384 52.2479 56.1205 52.0449 57.6767L52.4373 57.7443L53.0733 57.7714ZM13.4661 33.1032C12.546 33.0491 13.4797 31.9259 13.4661 33.1032V33.1032ZM4.68409 27.0139C3.18208 26.6756 4.29167 24.7812 4.68409 27.0139V27.0139ZM6.7815 27.5417C4.87353 26.8922 6.80856 26.8245 6.7815 27.5417V27.5417ZM7.98581 28.1235C7.63399 27.8394 7.71518 28.4754 7.98581 28.1235V28.1235ZM15.4824 32.9408C14.6569 32.7108 15.8477 32.6296 15.4824 32.9408V32.9408ZM7.17391 26.811C4.75175 26.5539 6.97094 25.1195 7.17391 26.811V26.811ZM2.89791 24.0234C2.47843 24.3211 2.84378 23.2386 2.89791 24.0234V24.0234ZM3.52037 23.5363C2.9791 23.6446 3.42565 22.6162 3.52037 23.5363V23.5363ZM7.05213 25.6472C8.54061 25.0654 4.33227 24.4294 6.75443 25.539L7.05213 25.6472ZM54.1964 54.7538C52.9921 54.4832 55.1572 53.8878 54.1964 54.7538V54.7538ZM59.9068 57.7173C58.9325 57.8661 60.2721 56.5806 59.9068 57.7173V57.7173ZM7.41748 23.7934C6.2267 24.0099 7.57986 22.6973 7.41748 23.7934V23.7934ZM2.39724 20.4376C2.12661 18.8949 2.1672 16.1886 4.73822 17.0952C1.30118 17.7854 7.11979 21.3712 6.38908 18.5431C7.83697 18.6108 9.21719 17.6906 8.44589 19.0979C11.3011 18.7867 13.2767 16.3104 16.0236 16.6487C18.1616 16.3645 20.5161 16.148 22.83 15.2955C24.7245 15.1467 26.5512 13.1034 25.5093 11.8991C22.9112 11.669 20.2049 12.0073 17.3497 12.5621C14.1833 13.2252 11.3011 14.4836 8.1076 15.0249C4.98179 15.4444 8.73005 16.1751 7.83697 16.3375C6.21317 16.9058 9.77199 17.2847 7.62046 17.8665C6.30789 17.623 4.91413 17.1629 5.48246 15.7556C2.49196 16.1345 -0.13318 17.3929 2.23486 20.424L2.39724 20.4376ZM9.60961 16.7705C10.3133 14.1859 13.3579 18.8949 10.7598 17.1088C10.435 16.8787 9.93437 16.6893 9.60961 16.7705ZM9.74493 15.5256C10.2727 15.945 10.7463 14.7813 9.74493 15.5256V15.5256ZM11.0304 15.5391C11.1252 14.3618 13.9668 16.1751 11.4905 15.9721L11.0304 15.5391ZM12.776 14.8354C12.9655 15.512 13.412 14.0912 12.776 14.8354V14.8354ZM13.2226 14.5378C14.2916 13.2522 19.2712 13.7123 15.6177 14.416C14.6569 13.6853 13.8991 14.849 13.2226 14.5378ZM19.7313 13.5364C19.5554 10.0317 22.9518 14.7813 19.7313 13.5364V13.5364ZM21.5716 13.5229C22.2482 11.7502 24.1832 12.8192 21.8828 13.1575C21.9234 13.3605 21.8152 14.0777 21.5716 13.5229ZM6.68678 22.9003C4.54877 21.8178 8.70299 21.6554 6.68678 22.9003V22.9003ZM8.17526 23.3063C6.63265 22.995 8.8789 22.562 8.17526 23.3063V23.3063ZM3.791 20.194C2.43784 19.8557 4.94119 19.3144 3.791 20.194V20.194ZM63.2626 57.3925C62.3831 57.8661 63.3032 56.3776 63.2626 57.3925V57.3925ZM57.2275 53.2789C56.4427 53.3736 57.3899 52.0881 57.2275 53.2789V53.2789ZM64.927 57.7985C66.5373 57.7985 69.7984 57.2978 66.3073 57.2978C65.7389 57.3925 63.1003 57.3654 64.927 57.7985ZM9.4743 22.5756C10.7869 22.4808 11.5176 21.1412 9.23073 21.2224C5.6719 20.857 12.3565 22.4267 8.78418 21.9802C8.29704 22.3049 9.46076 22.6703 9.4743 22.5756ZM10.6245 23.1709C10.2185 23.604 10.4892 22.3185 10.6245 23.1709V23.1709ZM11.9777 19.5309C11.2063 19.3415 12.5595 18.8408 11.9777 19.5309V19.5309ZM7.66105 12.2915C9.9885 11.5067 13.1684 10.6136 14.2645 12.6704C13.1414 11.3308 13.818 10.0046 14.8734 11.9667C16.3619 13.9559 17.1062 11.0601 16.1319 10.3971C17.2415 11.7773 18.4864 12.4133 16.8761 10.4783C18.6352 8.36732 13.3444 10.7624 12.14 10.7354C11.5582 11.006 6.15904 12.1291 7.66105 12.2915ZM9.01422 9.69342C10.3403 8.69208 13.6015 10.2753 11.504 8.69208C11.3146 8.51617 6.93035 9.8964 9.01422 9.69342ZM13.8586 9.88286C15.4147 9.92346 13.1955 7.81252 15.0358 8.75974C14.7381 7.77192 12.8843 7.58248 11.9641 7.17653C11.4635 8.09669 13.0196 9.8964 13.8586 9.88286ZM9.88025 5.49861C8.93303 5.86396 10.408 4.78143 9.88025 5.49861V5.49861ZM11.8423 5.97222C14.3322 5.64746 11.1928 4.90321 11.3417 5.94515L11.8423 5.97222ZM8.16173 3.08997C6.40261 0.78959 11.4635 3.48239 9.67727 1.07376C8.17526 -0.130562 6.72737 2.41339 8.16173 3.08997ZM30.7461 15.2549C31.558 13.8206 27.4037 13.3199 30.2048 14.7543C30.4619 14.8355 30.3942 15.3497 30.7461 15.2549Z" fill="black"/>
<g id="Group">
<g id="Group 18762">
<path id="Vector_2" d="M62.0805 10.0524C61.8177 11.1301 61.6337 12.9177 61.5811 15.415C61.5811 15.9144 61.3708 16.151 60.9239 16.151C60.477 16.151 60.1616 15.9407 60.0039 15.4938C59.5307 14.3372 59.0838 13.5223 58.6369 13.0491C58.1375 12.4971 57.454 12.1816 56.6128 12.0765C55.719 11.945 53.4583 11.8662 49.8307 11.8662C49.0158 11.8662 48.4637 11.945 48.2008 12.1291C48.0431 12.2342 47.9643 12.4708 47.9643 12.8388V23.6429C47.9643 24.0109 48.2008 24.1949 48.6477 24.1686C50.0672 24.1424 52.1177 24.0635 54.799 23.8795C55.3247 23.8269 55.6664 23.6429 55.8505 23.3537C56.0345 23.0646 56.2185 22.3548 56.3762 21.1982C56.4813 20.5673 56.8494 20.3044 57.5066 20.4621C58.0586 20.5673 58.2689 20.8302 58.19 21.1982C57.7431 23.3537 57.6117 26.1665 57.7694 29.6364C57.7957 30.057 57.5328 30.2673 56.9808 30.2936C56.5339 30.3462 56.2448 30.1096 56.1396 29.5838C55.719 27.586 54.9567 26.5345 53.8263 26.4031C52.696 26.2716 50.8821 26.1928 48.3586 26.1928C48.0694 26.1928 47.938 26.2979 47.938 26.5082V37.2334C47.938 38.0221 48.2271 38.5741 48.8317 38.8633C49.3049 39.0998 50.2775 39.3101 51.8022 39.5204C52.5908 39.5993 52.9326 39.941 52.8274 40.5456C52.7223 41.0714 52.0388 41.2817 50.7244 41.1765C46.9653 40.8611 43.8371 40.8874 41.3924 41.2291C40.709 41.3343 40.3672 41.0451 40.3672 40.3879C40.3672 39.9673 40.709 39.7307 41.3924 39.6782C42.9434 39.4942 43.732 38.1272 43.732 35.5773V15.1521C43.732 14.1006 43.548 13.2857 43.18 12.7337C42.8119 12.1553 42.1022 11.6559 41.1033 11.1827C40.4724 10.8935 40.2358 10.4992 40.3935 10.0261C40.4724 9.7369 40.6038 9.5529 40.7615 9.52661C40.9193 9.47403 41.3399 9.50032 42.0233 9.63176C43.0222 9.78948 45.3881 9.86834 49.1209 9.86834C53.5109 9.86834 57.2963 9.76319 60.5033 9.57918C61.5811 9.5266 62.1068 9.60547 62.1068 9.84205C62.1068 9.92091 62.1068 9.97349 62.0805 10.0524Z" fill="black"/>
<path id="Vector_3" d="M77.5636 40.3355C77.5636 40.9664 77.1956 41.2555 76.4859 41.1767C74.304 40.9664 71.5701 40.9926 68.3368 41.2818C67.6796 41.3344 67.2853 41.3344 67.1276 41.2292C66.9699 41.1241 66.891 40.8612 66.891 40.4406C66.891 40.0726 67.3116 39.7309 68.1791 39.468C69.0466 39.2051 69.4671 38.4165 69.4671 37.1284V15.5202C69.4671 14.2322 69.2831 13.2858 68.9151 12.6812C68.5471 12.0766 67.8899 11.6034 66.9436 11.2617C66.4441 11.0777 66.2075 10.8411 66.2075 10.5256C66.2075 10.0525 66.5755 9.68444 67.2853 9.44786C68.3631 9.10612 69.4934 8.55409 70.6501 7.81805C71.5964 7.23973 72.201 6.95056 72.4639 6.95056C73.0422 6.95056 73.3577 7.34487 73.3577 8.15978C73.3577 8.10721 73.3314 8.89583 73.2525 10.5519C73.1999 12.1292 73.1999 13.6801 73.1999 15.2048L73.3051 36.5238C73.3051 37.4964 73.5417 38.2062 74.0149 38.6268C74.488 39.0737 75.3029 39.3628 76.4596 39.4943C77.1956 39.5994 77.5636 39.8886 77.5636 40.3355Z" fill="black"/>
<path id="Vector_4" d="M99.1456 38.9422C99.1456 39.2839 98.541 39.7834 97.3318 40.4669C96.1226 41.1503 95.1499 41.4921 94.4139 41.4921C93.783 41.4921 93.2572 41.2029 92.7578 40.5983C92.2846 39.9937 91.9429 39.7045 91.7589 39.7045C91.6274 39.7045 90.8651 40.02 89.4981 40.6772C88.1312 41.3344 86.7643 41.6498 85.371 41.6498C84.0567 41.6498 82.9789 41.2555 82.1114 40.4932C81.1651 39.652 80.6919 38.4953 80.6919 37.0495C80.6919 34.2893 83.8464 32.3178 90.1553 31.1349C91.2331 30.9246 91.7851 30.4777 91.8114 29.8205L91.864 28.2958C91.9692 25.6934 90.8125 24.379 88.3941 24.379C87.7106 24.379 87.0534 24.9836 86.4488 26.2191C85.8442 27.4546 84.9504 28.1118 83.8201 28.1907C82.5057 28.3221 81.8748 27.7701 81.8748 26.5346C81.8748 25.7723 82.8475 24.8785 84.7927 23.8533C86.8168 22.7755 88.7884 22.2498 90.6548 22.2498C93.8881 22.2498 95.4917 23.7744 95.4391 26.85L95.3339 36.6815C95.3076 37.7067 95.7545 38.2324 96.6483 38.2324C96.8323 38.2324 97.1478 38.1799 97.6472 38.101C98.1467 38.0221 98.4358 37.9696 98.5147 37.9696C98.909 37.9959 99.1456 38.3113 99.1456 38.9422ZM91.7851 33.5007C91.8114 33.1064 91.7063 32.8435 91.5223 32.7121C91.312 32.5807 91.0228 32.5544 90.5759 32.6332C86.738 33.3167 84.819 34.5785 84.819 36.3923C84.819 38.2324 85.8179 39.1262 87.7895 39.1262C88.5781 39.1262 89.393 38.9685 90.2342 38.6793C91.2331 38.3376 91.7063 37.917 91.7063 37.4175L91.7851 33.5007Z" fill="black"/>
<path id="Vector_5" d="M116.864 36.182C116.864 37.8644 116.207 39.205 114.918 40.204C113.63 41.2029 111.843 41.7023 109.608 41.7023C108.11 41.7023 106.612 41.5446 105.113 41.2292C103.825 40.94 103.089 40.6771 102.879 40.4405C102.747 40.2302 102.695 39.1262 102.695 37.1809C102.695 36.3397 102.879 35.8928 103.273 35.8665C103.667 35.814 103.983 36.0243 104.246 36.4974C105.429 38.5741 107.374 39.6256 110.029 39.6256C112.263 39.6256 113.394 38.837 113.394 37.2861C113.394 36.6026 113.131 36.0243 112.631 35.5774C112.079 35.0516 111.002 34.447 109.398 33.7373C107.085 32.7121 105.534 31.792 104.745 31.0034C103.904 30.1885 103.483 29.0581 103.483 27.6649C103.483 25.9562 104.141 24.6156 105.455 23.6692C106.69 22.7492 108.32 22.276 110.371 22.276C111.659 22.276 112.842 22.3811 113.893 22.5914C115.05 22.8017 115.628 23.0646 115.681 23.3538C115.812 24.2476 116.075 25.5356 116.469 27.218C116.522 27.4283 116.285 27.586 115.812 27.7175C115.286 27.8226 114.945 27.7438 114.761 27.4546C113.499 25.4042 111.922 24.379 109.976 24.379C107.795 24.379 106.717 25.0887 106.717 26.482C106.717 27.2706 107.006 27.8752 107.611 28.3484C108.136 28.7427 109.372 29.3736 111.317 30.2148C113.341 31.0823 114.734 31.8709 115.47 32.5806C116.391 33.4481 116.864 34.6573 116.864 36.182Z" fill="black"/>
<path id="Vector_6" d="M144.938 40.3618C144.938 40.9138 144.57 41.2029 143.808 41.2555C142.704 41.2818 141.232 41.3607 139.444 41.4921C138.55 41.6761 137.919 41.5447 137.525 41.1504C135.001 38.4428 132.872 35.6038 131.137 32.6596C131.006 32.3967 130.822 32.2653 130.585 32.2653C130.322 32.2653 129.849 32.5018 129.166 32.975C128.43 33.3956 128.035 33.9739 128.035 34.7363C128.035 35.2883 128.062 36.0506 128.088 37.0758C128.114 38.101 128.377 38.7582 128.85 39.0737C129.192 39.3103 129.954 39.468 131.164 39.5994C131.9 39.7046 132.294 39.9674 132.294 40.4406C132.294 40.8086 132.241 41.0452 132.11 41.1241C131.978 41.2029 131.663 41.2292 131.164 41.1767C129.56 41.0452 126.879 41.1241 123.093 41.4132C122.147 41.4921 121.621 41.3607 121.542 41.0452C121.516 40.9401 121.49 40.7824 121.49 40.5721C121.49 40.0726 121.963 39.7046 122.936 39.4417C123.803 39.2051 124.25 38.1799 124.25 36.3661V15.5202C124.25 14.2059 124.119 13.3121 123.856 12.8126C123.514 12.1555 122.778 11.656 121.648 11.288C121.122 11.104 120.859 10.8674 120.859 10.5519C120.859 10.0788 121.227 9.73702 121.989 9.47415C123.172 9.07984 124.329 8.52781 125.407 7.81805C126.274 7.23973 126.826 6.95056 127.036 6.95056C127.694 6.95056 128.009 7.37116 128.009 8.18607C128.009 8.08092 128.009 8.86954 127.983 10.5519C127.956 11.7086 127.956 13.2858 127.956 15.2311L128.009 30.1623C128.009 30.5829 128.114 30.7932 128.351 30.7932C128.587 30.7932 128.955 30.5829 129.455 30.1623C130.769 29.1371 132.399 27.7701 134.318 26.114C134.712 25.7197 134.896 25.4043 134.896 25.1677C134.896 24.7471 134.239 24.4316 132.977 24.2739C132.425 24.2213 132.162 23.9059 132.189 23.3539C132.241 22.8018 132.504 22.5652 133.03 22.6441C134.187 22.8018 135.843 22.8807 138.051 22.907C139.575 22.9333 141.1 22.9333 142.599 22.9333C143.098 22.9595 143.335 23.2487 143.335 23.827C143.335 24.3791 142.94 24.6682 142.178 24.7208C140.942 24.7734 139.786 25.0362 138.708 25.562C137.183 26.2455 135.58 27.4547 133.871 29.1634C133.74 29.2685 133.687 29.3737 133.687 29.5314C133.687 29.7417 133.95 30.2937 134.502 31.1349C136.5 34.1579 138.366 36.4449 140.127 37.9959C141.258 38.9685 142.309 39.4417 143.308 39.4417C144.044 39.4417 144.491 39.4943 144.675 39.5994C144.859 39.652 144.938 39.9149 144.938 40.3618Z" fill="black"/>
</g>
</g>
</g>
</svg>
