<svg width="61" height="62" viewBox="0 0 61 62" fill="none" xmlns="http://www.w3.org/2000/svg">
<g id="Group 18862">
<g id="Group">
<path id="Vector" d="M1.83203 52.2185V59.8758H35.8016V52.2185C35.8188 51.1341 35.6178 50.0573 35.2105 49.052C34.8033 48.0468 34.1981 47.1336 33.4309 46.3668C32.6637 45.5999 31.7502 44.9949 30.7445 44.5879C29.7389 44.1808 28.6617 43.9798 27.5768 43.997H10.1204C7.93171 43.9922 5.83035 44.8548 4.27676 46.3958C2.72317 47.9369 1.84405 50.0307 1.83203 52.2185Z" stroke="#336699" stroke-width="3"/>
<path id="Vector_2" d="M18.8488 38.1157C21.3606 38.1069 23.767 37.1056 25.5432 35.3303C27.3194 33.555 28.3213 31.1496 28.3304 28.6388C28.3216 26.1279 27.3198 23.7223 25.5436 21.9468C23.7673 20.1713 21.3608 19.1699 18.8488 19.161C16.3369 19.1699 13.9303 20.1713 12.1541 21.9468C10.3778 23.7223 9.37605 26.1279 9.36719 28.6388C9.40718 33.856 13.6295 38.0758 18.8488 38.1157ZM45.9996 39.4975C47.9634 39.4934 49.8457 38.7118 51.2344 37.3237C52.6231 35.9355 53.405 34.054 53.4091 32.0909C53.3839 30.1344 52.5952 28.2651 51.211 26.8815C49.8269 25.498 47.9569 24.7096 45.9996 24.6844C44.0357 24.6884 42.1534 25.4701 40.7647 26.8582C39.3761 28.2463 38.5941 30.1278 38.59 32.0909C38.62 36.1689 41.9199 39.4675 45.9996 39.4975Z" stroke="#336699" stroke-width="3"/>
<path id="Vector_3" d="M52.8453 44.6865H40.0356C42.2413 46.5924 43.5028 49.3677 43.4891 52.282L43.8027 59.8767H59.3752V51.1556C59.3802 50.2997 59.2143 49.4515 58.8872 48.6605C58.5601 47.8696 58.0784 47.1518 57.4703 46.5493C56.8621 45.9469 56.1398 45.4718 55.3457 45.1519C54.5515 44.832 53.7015 44.6738 52.8453 44.6865Z" stroke="#336699" stroke-width="3"/>
</g>
<path id="Vector_4" d="M35.7133 22.5532L36.4991 21.34L37.3207 20.0714L36.0459 19.2594C34.0087 17.9618 32.535 15.9463 31.9181 13.613L31.918 13.6127C31.5954 12.394 31.5166 11.1237 31.686 9.87459C31.8554 8.62543 32.2697 7.42194 32.9052 6.33306C33.5407 5.24417 34.3849 4.29129 35.3895 3.52902C36.3938 2.76696 37.5387 2.21038 38.7586 1.89119C43.8868 0.557945 49.128 3.6151 50.4913 8.73186C51.8389 13.8401 48.8099 19.0781 43.708 20.4595L35.7133 22.5532Z" stroke="#336699" stroke-width="3"/>
<path id="Vector_5" d="M38.5337 14.7688L38.5337 14.7688L38.5301 14.7707C38.5271 14.7723 38.5236 14.7733 38.519 14.7729C38.5149 14.7726 38.5114 14.7714 38.5083 14.7694C38.5047 14.7666 38.502 14.7629 38.5003 14.7588C38.4986 14.7544 38.498 14.7497 38.4987 14.745C38.4987 14.7449 38.4987 14.7447 38.4988 14.7445L38.9199 12.2934L39.0089 11.775L38.6323 11.4079L36.8501 9.67095L36.8497 9.67057C36.8433 9.66435 36.8414 9.6553 36.8438 9.64787L35.8934 9.33792L36.8436 9.64858C36.8451 9.64395 36.8479 9.63977 36.8517 9.63655C36.8555 9.63337 36.8601 9.63126 36.8651 9.63049C36.8651 9.63048 36.8652 9.63047 36.8653 9.63046L39.3268 9.27273L39.847 9.19713L40.0797 8.7258L41.1798 6.49741C41.1798 6.49738 41.1798 6.49734 41.1798 6.49731C41.1845 6.48792 41.1934 6.48329 41.2015 6.48329C41.2096 6.48329 41.2184 6.48792 41.2231 6.49731C41.2231 6.49735 41.2231 6.49738 41.2232 6.49741L42.3233 8.7258L42.5559 9.1971L43.0761 9.27272L45.5376 9.63059C45.5377 9.63059 45.5377 9.6306 45.5377 9.63061C45.5477 9.6321 45.5551 9.63846 45.5582 9.64787C45.5606 9.6553 45.5587 9.66435 45.5524 9.67057L45.552 9.67095L43.7698 11.4079L43.3932 11.7749L43.4821 12.2931L43.9028 14.7451C43.9028 14.7451 43.9028 14.7451 43.9028 14.7452C43.904 14.7525 43.9012 14.7616 43.8928 14.7677L43.8912 14.7689C43.8881 14.7711 43.8843 14.7724 43.8804 14.7724H43.8788C43.8778 14.7724 43.8766 14.7722 43.875 14.7719C43.8734 14.7715 43.8708 14.7706 43.8671 14.7687L41.6666 13.6126L41.2017 13.3683L40.7367 13.6124L38.5337 14.7688Z" fill="white" stroke="#336699" stroke-width="2"/>
</g>
</svg>
