<svg width="56" height="65" viewBox="0 0 56 65" fill="none" xmlns="http://www.w3.org/2000/svg">
<g id="Group 18872">
<path id="Vector" d="M38.1632 21.636L36.8205 32.7187C36.6599 34.0291 35.7862 35.1404 34.5531 35.6038L33.8103 35.8896L31.138 52.4885C31.0192 53.2191 30.3905 53.7561 29.6524 53.758H25.7833C25.0451 53.7561 24.4165 53.2191 24.2976 52.4885L21.6216 35.8914L20.8788 35.6057C19.6458 35.1422 18.772 34.031 18.6114 32.7206L17.2623 21.6378C17.0729 20.2976 17.5622 18.95 18.5668 18.0454C19.1017 17.5912 19.7395 17.2757 20.4239 17.1249L23.2484 16.9788C23.8947 16.9453 24.5223 17.2031 24.9587 17.6833L26.5419 19.4154C26.6915 19.579 26.8734 19.7096 27.0761 19.799C27.2788 19.8884 27.4978 19.9345 27.7192 19.9345C27.9406 19.9345 28.1597 19.8884 28.3623 19.799C28.565 19.7096 28.747 19.579 28.8966 19.4154L30.475 17.6843C30.9114 17.204 31.5391 16.9462 32.1854 16.9797L35.0099 17.1258C35.6942 17.2766 36.3321 17.5921 36.8669 18.0463C37.3602 18.4921 37.7365 19.0528 37.9625 19.6788C38.1885 20.3048 38.2575 20.977 38.1632 21.636Z" stroke="#336699" stroke-width="3" stroke-miterlimit="10"/>
<path id="Vector_2" d="M27.7164 14.3561C30.9988 14.3561 33.6598 11.6889 33.6598 8.39878C33.6598 5.10861 30.9988 2.44141 27.7164 2.44141C24.4339 2.44141 21.7729 5.10861 21.7729 8.39878C21.7729 11.6889 24.4339 14.3561 27.7164 14.3561Z" stroke="#336699" stroke-width="3"/>
<path id="Vector_3" d="M14.8374 15.0608L13.2543 16.7937C12.9525 17.1241 12.5263 17.3121 12.0797 17.3121C11.6331 17.3121 11.2069 17.1241 10.9051 16.7937L9.32202 15.0608C8.88561 14.5805 8.25794 14.3227 7.61169 14.3562L4.78715 14.5024C4.10283 14.6531 3.46494 14.9686 2.93011 15.4228C1.92546 16.3274 1.43613 17.6751 1.62555 19.0153L2.97468 30.098C3.13532 31.4084 4.00905 32.5197 5.24212 32.9831L5.98493 33.2689L8.6572 49.8687" stroke="#336699" stroke-width="3" stroke-miterlimit="10" stroke-linecap="round"/>
<path id="Vector_4" d="M11.493 10.9398C13.9489 10.9398 15.9397 8.94425 15.9397 6.48267C15.9397 4.02108 13.9489 2.02557 11.493 2.02557C9.03722 2.02557 7.04639 4.02108 7.04639 6.48267C7.04639 8.94425 9.03722 10.9398 11.493 10.9398Z" stroke="#336699" stroke-width="3"/>
<path id="Vector_5" d="M46.7759 49.8743L49.4482 33.2744L50.191 32.9887C51.4241 32.5252 52.2978 31.414 52.4584 30.1035L53.8076 19.0208C53.997 17.6806 53.5076 16.333 52.503 15.4284C51.9682 14.9742 51.3303 14.6587 50.646 14.5079L47.8214 14.3618C47.1752 14.3283 46.5475 14.5861 46.1111 15.0663L44.528 16.7993C44.2262 17.1297 43.8 17.3177 43.3534 17.3177C42.9068 17.3177 42.4806 17.1297 42.1788 16.7993L40.5957 15.0663" stroke="#336699" stroke-width="3" stroke-miterlimit="10" stroke-linecap="round"/>
<path id="Vector_6" d="M43.9374 10.9398C46.3932 10.9398 48.384 8.94425 48.384 6.48267C48.384 4.02108 46.3932 2.02557 43.9374 2.02557C41.4816 2.02557 39.4907 4.02108 39.4907 6.48267C39.4907 8.94425 41.4816 10.9398 43.9374 10.9398Z" stroke="#336699" stroke-width="3"/>
<path id="Vector_7" d="M36.9466 51.2593C43.2261 52.3007 47.5057 54.3724 47.5057 56.7587C47.5057 60.1911 38.6448 62.9749 27.7162 62.9749C16.7876 62.9749 7.92676 60.1921 7.92676 56.7587C7.92676 54.3734 12.2063 52.3017 18.4858 51.2593" stroke="#336699" stroke-width="3" stroke-miterlimit="10" stroke-linecap="round"/>
<path id="Vector_8" d="M28.2347 23.6631L29.3907 26.0113C29.4752 26.1825 29.6377 26.3007 29.8262 26.3286L32.4112 26.7009C32.6285 26.7325 32.8095 26.8861 32.8773 27.0955C32.9451 27.3049 32.8885 27.5357 32.7315 27.6893L30.8615 29.5172C30.7942 29.5826 30.7439 29.6636 30.715 29.7529C30.686 29.8423 30.6792 29.9374 30.6953 30.03L31.1373 32.6108C31.1735 32.8267 31.0843 33.0454 30.907 33.1748C30.7297 33.3042 30.4957 33.3219 30.3016 33.2213L27.9896 32.0031C27.9068 31.9592 27.8145 31.9363 27.7208 31.9363C27.6271 31.9363 27.5348 31.9592 27.452 32.0031L25.14 33.2213C24.9459 33.3219 24.711 33.3042 24.5346 33.1748C24.3582 33.0454 24.269 32.8277 24.3043 32.6108L24.7454 30.03C24.7779 29.842 24.7157 29.6503 24.5792 29.5172L22.7091 27.6893C22.5522 27.5348 22.4956 27.3049 22.5634 27.0955C22.6311 26.8861 22.8122 26.7325 23.0295 26.7009L25.6145 26.3286C25.803 26.3007 25.9654 26.1825 26.0499 26.0113L27.2059 23.6631C27.3053 23.4695 27.504 23.3485 27.7203 23.3485C27.9367 23.3485 28.1354 23.4695 28.2347 23.6631Z" stroke="#336699" stroke-width="2" stroke-miterlimit="10"/>
</g>
</svg>
