<svg width="73" height="61" viewBox="0 0 73 61" fill="none" xmlns="http://www.w3.org/2000/svg">
<g id="Live-classes">
<g id="Group 18732">
<g id="Rectangle 3741">
<path id="Vector" d="M68.6479 1.62003H4.96779C3.57952 1.62003 2.4541 2.87679 2.4541 4.42708V38.8172C2.4541 40.3675 3.57952 41.6243 4.96779 41.6243H68.6479C70.0361 41.6243 71.1616 40.3675 71.1616 38.8172V4.42708C71.1616 2.87679 70.0361 1.62003 68.6479 1.62003Z" stroke="#336699" stroke-width="2"/>
</g>
<g id="Group 18731">
<g id="Ellipse 800">
<path id="Vector_2" d="M27.5874 13.3853C28.9757 13.3853 30.1011 12.1286 30.1011 10.5783C30.1011 9.028 28.9757 7.77124 27.5874 7.77124C26.1991 7.77124 25.0737 9.028 25.0737 10.5783C25.0737 12.1286 26.1991 13.3853 27.5874 13.3853Z" stroke="#336699" stroke-width="2"/>
</g>
<g id="Ellipse 801">
<path id="Vector_3" d="M27.5874 33.9693C28.9757 33.9693 30.1011 32.7126 30.1011 31.1623C30.1011 29.612 28.9757 28.3552 27.5874 28.3552C26.1991 28.3552 25.0737 29.612 25.0737 31.1623C25.0737 32.7126 26.1991 33.9693 27.5874 33.9693Z" stroke="#336699" stroke-width="2"/>
</g>
<g id="Ellipse 802">
<path id="Vector_4" d="M36.8057 33.9693C38.194 33.9693 39.3194 32.7126 39.3194 31.1623C39.3194 29.612 38.194 28.3552 36.8057 28.3552C35.4174 28.3552 34.292 29.612 34.292 31.1623C34.292 32.7126 35.4174 33.9693 36.8057 33.9693Z" stroke="#336699" stroke-width="2"/>
</g>
<g id="Ellipse 803">
<path id="Vector_5" d="M46.023 33.9693C47.4112 33.9693 48.5367 32.7126 48.5367 31.1623C48.5367 29.612 47.4112 28.3552 46.023 28.3552C44.6347 28.3552 43.5093 29.612 43.5093 31.1623C43.5093 32.7126 44.6347 33.9693 46.023 33.9693Z" stroke="#336699" stroke-width="2"/>
</g>
<path id="Path 16180" d="M24.5654 25.9407V19.5609C24.5217 19.1483 24.5622 18.7308 24.6841 18.3383C24.806 17.9457 25.006 17.5886 25.2691 17.2948C25.5322 17.001 25.8512 16.7785 26.2028 16.6424C26.5543 16.5062 26.9289 16.4601 27.2984 16.509H38.0233C38.0233 16.509 40.5299 16.2171 40.5902 18.6873C40.6505 21.1575 38.3509 20.9333 38.0241 20.9333H31.3341V25.9425" stroke="#336699" stroke-width="2"/>
<path id="Path 16181" d="M32.9946 8.2683H46.8346C47.1265 8.21989 47.4251 8.24908 47.7053 8.35237C47.9854 8.45566 48.2396 8.62931 48.4482 8.86224C48.6569 9.09518 48.8139 9.38093 48.9065 9.69376C48.9991 10.0066 49.025 10.3382 48.9817 10.6642V20.8105C48.9817 20.8105 49.3488 22.8043 47.1971 22.8043H43.5943" stroke="#336699" stroke-width="2" stroke-linecap="round"/>
</g>
<path id="Path 16182" d="M1.61621 54.6635H71.9995" stroke="#336699" stroke-width="2" stroke-linecap="round"/>
<g id="Polygon 137">
<path id="Vector_6" d="M30.7171 58.8845V48.3576C30.7171 47.8773 31.0036 47.6352 31.1268 47.5534C31.2499 47.4716 31.5772 47.3062 31.9551 47.5355L40.6276 52.7989C41.0228 53.0387 41.0654 53.4537 41.0654 53.621C41.0654 53.7883 41.0228 54.2033 40.6276 54.4432L31.9551 59.7066C31.5772 59.9359 31.2499 59.7705 31.1268 59.6887C31.0036 59.6069 30.7171 59.3648 30.7171 58.8845Z" fill="white"/>
<path id="Vector_7" d="M40.2275 53.6208L31.555 48.3574L31.555 58.8842L40.2275 53.6208ZM41.9033 53.6208C41.9033 54.2658 41.6115 54.9108 41.0277 55.265L32.3552 60.5284C31.2386 61.2061 29.8792 60.3034 29.8792 58.8842V48.3574C29.8792 46.9382 31.2386 46.0355 32.3552 46.7132L41.0277 51.9766C41.6115 52.3308 41.9033 52.9758 41.9033 53.6208Z" fill="#336699"/>
</g>
</g>
</g>
</svg>
