<svg width="26" height="28" viewBox="0 0 26 28" fill="none" xmlns="http://www.w3.org/2000/svg">
<g id="mdi_palette-swatch-19337.svg">
<path id="Vector" d="M2.74062 22.9833L4.1923 23.6133V13.4546L1.5598 20.0471C1.11563 21.1946 1.6248 22.5108 2.74062 22.9833ZM23.8656 18.8208L18.4923 5.37709C18.3335 4.96932 18.0633 4.61881 17.7147 4.36887C17.3663 4.11894 16.9549 3.98056 16.5314 3.97083C16.2499 3.97083 15.9573 4.01583 15.6756 4.13958L7.69147 7.57084C7.3061 7.74065 6.97575 8.0217 6.73956 8.38063C6.50337 8.73955 6.37129 9.16129 6.35897 9.59584C6.34812 9.87707 6.4023 10.2033 6.49979 10.4958L11.9165 23.9396C12.2306 24.8171 13.0323 25.3345 13.8773 25.3458C14.159 25.3458 14.4406 25.2896 14.7115 25.1771L22.6849 21.7459C23.2148 21.5204 23.6369 21.0857 23.8584 20.5371C24.0798 19.9887 24.0824 19.3714 23.8656 18.8208ZM8.53647 10.7208C8.24915 10.7208 7.9736 10.6023 7.77043 10.3913C7.56726 10.1804 7.45312 9.8942 7.45312 9.59584C7.45312 9.29745 7.56726 9.01132 7.77043 8.80033C7.9736 8.58936 8.24915 8.47083 8.53647 8.47083C9.1323 8.47083 9.61979 8.97708 9.61979 9.59584C9.61979 10.2146 9.1323 10.7208 8.53647 10.7208ZM6.36979 23.0959C6.36979 23.6926 6.59808 24.2648 7.00439 24.6869C7.41073 25.1087 7.96182 25.3458 8.53647 25.3458H10.1073L6.36979 15.9633V23.0959Z" fill="black"/>
</g>
</svg>
