<svg width="64" height="63" viewBox="0 0 64 63" fill="none" xmlns="http://www.w3.org/2000/svg">
<g id="Structured-industry">
<g id="Group 18730">
<g id="Group 18727">
<path id="Path 16170" d="M31.8018 24.7056L19.9697 19.8043V6.23798L31.8018 11.1392V24.7056Z" stroke="#336699" stroke-width="2.5" stroke-linecap="round" stroke-linejoin="round"/>
<path id="Path 16171" d="M31.8018 24.7055L43.6338 19.8042V6.23792L31.8018 11.1392V24.7055Z" stroke="#336699" stroke-width="2.5" stroke-linecap="round" stroke-linejoin="round"/>
<path id="Path 16172" d="M19.9697 6.23438L31.8018 1.33313L43.6339 6.23438L31.8018 11.1356L19.9697 6.23438Z" stroke="#336699" stroke-width="2.5" stroke-linecap="round" stroke-linejoin="round"/>
</g>
<g id="Group 18728">
<path id="Path 16173" d="M50.1934 61.285L38.3613 56.3837V42.8174L50.1934 47.7187V61.285Z" stroke="#336699" stroke-width="2.5" stroke-linecap="round" stroke-linejoin="round"/>
<path id="Path 16174" d="M50.1934 61.2851L62.0254 56.3838V42.8175L50.1934 47.7188V61.2851Z" stroke="#336699" stroke-width="2.5" stroke-linecap="round" stroke-linejoin="round"/>
<path id="Path 16175" d="M38.3613 42.814L50.1934 37.9127L62.0255 42.814L50.1934 47.7152L38.3613 42.814Z" stroke="#336699" stroke-width="2.5" stroke-linecap="round" stroke-linejoin="round"/>
</g>
<g id="Group 18729">
<path id="Path 16176" d="M14.0274 61.2849L2.19531 56.3836V42.8173L14.0274 47.7186V61.2849Z" stroke="#336699" stroke-width="2.5" stroke-linecap="round" stroke-linejoin="round"/>
<path id="Path 16177" d="M14.0264 61.285L25.8584 56.3837V42.8174L14.0264 47.7187V61.285Z" stroke="#336699" stroke-width="2.5" stroke-linecap="round" stroke-linejoin="round"/>
<path id="Path 16178" d="M2.19531 42.8139L14.0274 37.9126L25.8594 42.8139L14.0274 47.7151L2.19531 42.8139Z" stroke="#336699" stroke-width="2.5" stroke-linecap="round" stroke-linejoin="round"/>
</g>
<path id="Line 364" d="M31.8008 24.7067V33.4919" stroke="#336699" stroke-width="2.5" stroke-linecap="round" stroke-linejoin="round"/>
<path id="Line 365" d="M50.2349 33.4911H13.915" stroke="#336699" stroke-width="2.5" stroke-linecap="round" stroke-linejoin="round"/>
<path id="Line 366" d="M13.5205 42.41L13.6771 33.4911" stroke="#336699" stroke-width="2.5" stroke-linecap="round" stroke-linejoin="round"/>
<path id="Path 16179" d="M50.2344 42.2546V33.4911" stroke="#336699" stroke-width="2.5" stroke-linecap="round"/>
</g>
</g>
</svg>
