<svg width="107" height="79" viewBox="0 0 107 79" fill="none" xmlns="http://www.w3.org/2000/svg">
<path id="Vector" d="M33.4092 18.1267C39.7887 11.4316 46.3386 5.26062 55.3511 2.77127C72.0663 -1.85369 87.4453 0.150896 100.571 12.4142C101.829 13.5934 102.837 15.0477 103.859 16.4627C104.75 17.7074 105.497 19.0569 106.44 20.5636C102.589 22.9612 98.8682 25.2803 95.0038 27.691C94.362 26.9049 93.7987 26.276 93.3009 25.5947C83.2927 11.7985 60.9578 10.7765 50.1113 21.6642C38.8455 32.9842 27.4095 44.1339 16.1307 55.4408C15.4495 56.1221 15.2268 57.5109 15.2137 58.5721C15.1351 65.241 15.1744 71.9229 15.1744 78.8276H0.4635C0.4635 72.1457 0.869585 65.3589 0.345598 58.6507C-0.112891 52.8204 1.73417 48.7719 6.01776 44.8283C15.3447 36.2596 24.187 27.1538 33.383 18.1267H33.4092Z" fill="#F8F9FA"/>
</svg>
