<svg width="175" height="81" viewBox="0 0 175 81" fill="none" xmlns="http://www.w3.org/2000/svg">
<path id="Vector" d="M175 18.8424L172.721 20.7422L172.603 20.847L168.136 24.568L165.201 27.0311C164.494 26.4153 163.813 25.9437 163.263 25.341C154.617 15.96 144.045 12.5273 131.548 15.0691C126.02 16.1959 121.724 19.432 117.859 23.2971C103.135 37.9712 88.2146 52.4749 73.8311 67.4766C59.5001 82.3996 36.353 83.6705 21.8778 76.6741C19.2186 75.3901 16.8083 73.6082 14.3848 71.7478L13.9132 71.394C13.5726 71.132 13.232 70.8568 12.8783 70.5948C12.839 70.5555 12.7866 70.5162 12.7343 70.4769C12.2365 70.0838 11.7649 69.6777 11.3195 69.2715C10.5466 68.6033 9.85232 67.9351 9.23664 67.3194C7.95287 66.0354 7.0097 64.961 6.59051 64.45C6.43331 64.2666 6.34161 64.1618 6.34161 64.1618C3.77408 60.8601 1.91393 57.1261 0.682556 53.0383C0.446762 52.2391 0.748056 50.9027 1.29824 50.3C5.04475 46.2646 8.92225 42.3472 13.1534 38.0105C13.494 41.1156 13.5202 43.5788 14.0573 45.924C17.0833 59.039 27.9037 66.9656 41.9596 66.9263C49.6491 66.9001 56.0287 64.2142 61.4519 58.8424C76.5035 43.9194 91.686 29.1143 106.659 14.1258C112.724 8.05961 119.654 3.7753 128.155 1.74451L128.234 1.7183C128.234 1.7183 128.378 1.679 128.457 1.6659C128.548 1.63969 128.64 1.62659 128.706 1.61349H128.719C129.505 1.49557 131.404 1.22043 134.05 1.06321H134.09C136.29 0.91909 139.028 0.879784 142.067 1.06321C145.46 1.25974 149.246 1.77071 153.123 2.77955C154.316 3.0809 155.534 3.43465 156.739 3.86701C157.224 4.02423 157.708 4.19456 158.18 4.37798C158.206 4.37798 158.219 4.39108 158.232 4.40419C158.547 4.509 158.848 4.64002 159.149 4.77104C159.516 4.91516 159.883 5.05928 160.25 5.2296C160.708 5.42613 161.167 5.63576 161.625 5.85849L161.704 5.8978C161.704 5.8978 161.769 5.9371 161.795 5.95021C167.415 8.80641 171.62 13.3004 175 18.8424Z" fill="#F8F9FA"/>
</svg>
