<svg width="112" height="79" viewBox="0 0 112 79" fill="none" xmlns="http://www.w3.org/2000/svg">
<path id="Vector" d="M108.531 31.3724C104.863 34.6348 101.64 38.3819 98.2082 41.9325L97.2258 42.9282V41.6312C97.2258 37.5565 97.3175 33.4949 97.1865 29.4333C97.121 27.4156 96.859 25.3586 96.2826 23.4458C94.1473 16.1611 86.0648 12.6498 77.799 15.5191C69.8213 18.2836 65.4198 24.2319 64.2146 32.3681C63.4417 37.7006 63.1535 43.151 63.0618 48.549C62.8915 58.5981 63.0094 68.6603 63.0094 78.8929H48.7308V56.397C48.626 47.396 48.5605 38.6832 48.3771 29.9705C48.3247 28.0576 48.0365 26.1055 47.5387 24.2581C45.4166 16.2397 37.2948 12.4402 28.8324 15.5847C19.322 19.1222 15.2349 26.7212 14.855 36.2332C14.3048 49.4792 14.3965 62.7383 14.2262 75.9974C14.2262 76.9407 14.2262 77.884 14.2262 78.9453H0V2.46968H14.1476V9.84604C21.2608 2.92825 29.2516 -0.111384 38.4344 0.622321C47.6959 1.36913 54.8745 5.64034 59.3153 14.2614C61.0052 12.414 62.4592 10.6452 64.0967 9.07303C74.3537 -0.766477 90.1257 -2.37801 100.736 5.33899C106.88 9.80673 109.697 16.1611 111.229 23.3934C111.963 26.8261 111.111 29.0665 108.518 31.3724H108.531Z" fill="#F8F9FA"/>
</svg>
