<svg width="138" height="94" viewBox="0 0 138 94" fill="none" xmlns="http://www.w3.org/2000/svg">
<g id="XMLID_1_">
<path id="XMLID_4_" d="M33.5526 85.2034H28.2831C28.0967 76.3082 27.5718 67.975 26.7513 60.1294H26.714L18.7165 85.2034H14.7178L6.75761 60.1267H6.72032C6.12357 67.6393 5.74794 76.0098 5.59875 85.2008H0.742188C1.04056 74.0277 1.82646 63.526 3.05991 53.7729H9.60016L17.1874 76.8676H17.2247L24.8492 53.7729H31.0911C32.4684 65.2097 33.2916 75.7114 33.5526 85.2034Z" fill="#6A7E91"/>
<path id="XMLID_18_" d="M56.3483 61.9968C54.2171 73.6201 51.3772 82.0651 47.866 87.3346C45.138 91.4079 42.1489 93.4246 38.8588 93.4246C37.9984 93.4246 36.9167 93.1635 35.646 92.6387V89.8361C36.28 89.9107 36.9913 89.9853 37.8518 89.9853C39.3837 89.9853 40.6171 89.5751 41.5149 88.7146C42.6365 87.7049 43.1959 86.546 43.1959 85.2753C43.1959 84.4148 42.7484 82.6219 41.8879 79.9312L36.0962 61.9941H41.2538L45.4017 75.4103C46.3368 78.474 46.7098 80.5679 46.5606 81.8014C48.841 75.7486 50.4102 69.1338 51.3053 61.9941L56.3483 61.9968Z" fill="#6A7E91"/>
<path id="XMLID_19_" d="M126.416 85.2034H111.468V53.7383H116.514V81.3165H126.416V85.2034Z" fill="#FA8A3B"/>
<path id="XMLID_25_" fill-rule="evenodd" clip-rule="evenodd" d="M107.544 85.9493L101.753 83.1094C102.275 82.6992 102.762 82.2489 103.21 81.6895C105.677 78.8123 106.91 74.5525 106.91 68.8728C106.91 58.483 102.837 53.2534 94.6531 53.2534C90.6543 53.2534 87.5161 54.5615 85.2729 57.2149C82.806 60.092 81.6099 64.3519 81.6099 69.9943C81.6099 75.5249 82.6941 79.5609 84.86 82.1397C86.8394 84.4574 89.8311 85.6163 93.8672 85.6163C95.3617 85.6163 96.7443 85.4298 97.9778 85.0569L105.49 89.4286L107.544 85.9493ZM88.8241 78.8869C87.5534 76.8303 86.9193 73.5428 86.9193 69.0219C86.9193 61.099 89.3116 57.1376 94.1309 57.1376C96.6351 57.1376 98.5026 58.0727 99.6615 59.9775C100.932 62.0341 101.566 65.2843 101.566 69.7679C101.566 77.7653 99.174 81.7268 94.3547 81.7268C91.8505 81.7641 90.0176 80.7944 88.8241 78.8869Z" fill="#FA8A3B"/>
<path id="XMLID_26_" d="M79.4065 76.4945C79.4065 79.1479 78.4341 81.3537 76.492 83.0721C74.5499 84.7904 71.8965 85.6509 68.6064 85.6509C65.5427 85.6509 62.5537 84.6785 59.6738 82.6991L61.0192 80.0084C63.4861 81.2419 65.7638 81.8759 67.7832 81.8759C69.688 81.8759 71.1452 81.4656 72.2295 80.6052C73.3138 79.782 73.9478 78.5885 73.9478 77.1286C73.9478 75.2611 72.6398 73.652 70.2474 72.3439C68.0416 71.1478 63.6326 68.6063 63.6326 68.6063C61.2403 66.8507 60.0441 64.9805 60.0441 61.9168C60.0441 59.3753 60.9419 57.3213 62.7348 55.7496C64.5277 54.1778 66.8454 53.3945 69.648 53.3945C72.5625 53.3945 75.2159 54.1804 77.6082 55.7123L76.3748 58.4029C74.3181 57.5425 72.3014 57.0949 70.322 57.0949C68.7156 57.0949 67.4822 57.4679 66.5844 58.2538C65.7239 59.0397 65.1644 60.0094 65.1644 61.2428C65.1644 63.1103 66.5098 64.7194 68.9394 66.1021C71.1825 67.2982 75.7034 69.877 75.7034 69.877C78.2103 71.5634 79.4065 73.4309 79.4065 76.4945Z" fill="#FA8A3B"/>
<path id="XMLID_27_" fill-rule="evenodd" clip-rule="evenodd" d="M132.732 43.2365C129.706 43.1619 127.351 43.4603 125.371 44.2835C124.812 44.5072 123.877 44.5072 123.802 45.2185C124.1 45.5169 124.138 46.0044 124.399 46.452C124.846 47.2006 125.632 48.2449 126.378 48.7697C127.164 49.3665 127.985 49.9659 128.808 50.5253C130.302 51.4604 131.946 51.9826 133.403 52.8804C134.227 53.4025 135.084 54.0765 135.908 54.6733C136.318 54.9716 136.579 55.4592 137.104 55.6456V55.5337C136.843 55.1981 136.768 54.7106 136.507 54.3003C136.134 53.9273 135.758 53.589 135.348 53.216C134.227 51.7215 132.881 50.4507 131.387 49.3665C130.153 48.5433 127.5 47.3871 127.015 46.0044L126.94 45.9298C127.764 45.8552 128.771 45.5569 129.556 45.3331C130.865 44.9974 132.023 45.072 133.369 44.7363C133.965 44.5872 134.602 44.4007 135.199 44.2142V43.8785C134.528 43.2072 134.003 42.2721 133.294 41.6354C131.352 39.9544 129.221 38.348 127.015 36.9653C125.819 36.2167 124.324 35.7319 123.054 35.0605C122.606 34.8367 121.857 34.7248 121.559 34.3492C120.888 33.526 120.475 32.4071 119.99 31.4347C118.906 29.3408 117.821 27.0257 116.889 24.8199C116.218 23.3254 115.805 21.8681 114.947 20.4855C111.023 14.0198 106.763 10.0957 100.26 6.2861C98.84 5.50021 97.1962 5.12724 95.4007 4.71698C94.4656 4.67968 93.4959 4.60509 92.5608 4.56779C91.9641 4.30671 91.3273 3.59541 90.8052 3.22245C88.6367 1.8398 83.0688 -1.11196 81.4624 2.81218C80.4527 5.27909 82.9942 7.70871 83.8547 8.97946C84.4887 9.83995 85.3492 10.847 85.7968 11.8193C86.0578 12.4534 86.1324 13.1647 86.3935 13.836C86.9903 15.517 87.5524 17.3872 88.3729 18.919C88.7832 19.7049 89.2334 20.5628 89.7928 21.2741C90.0912 21.6843 90.616 21.8708 90.7279 22.5821C90.2058 23.3307 90.1685 24.4869 89.8674 25.422C88.4848 29.7191 89.0443 35.0259 90.989 38.2014C91.5858 39.1365 93.0457 41.2278 94.9877 40.4446C96.7061 39.7732 96.3331 37.6047 96.818 35.6999C96.9298 35.2523 96.8552 34.9513 97.079 34.6529V34.7275C97.6012 35.7745 98.126 36.8215 98.6482 37.8658C99.8443 39.7333 101.861 41.678 103.582 42.9488C104.48 43.6201 105.226 44.8163 106.347 45.2292V45.1173H106.273C106.049 44.7816 105.713 44.6325 105.412 44.3687C104.741 43.6974 103.955 42.8369 103.433 42.0883C101.826 39.957 100.444 37.6047 99.173 35.1751C98.5762 33.9789 98.0141 32.7082 97.5293 31.512C97.3055 31.0644 97.3055 30.3904 96.9325 30.1294C96.3731 30.9525 95.5126 31.6985 95.1023 32.7082C94.391 34.3519 94.3164 36.3712 94.018 38.4625C93.8688 38.4998 93.9434 38.4625 93.8688 38.5371C92.6727 38.2387 92.2251 36.968 91.7749 35.921C90.6533 33.2303 90.4296 28.8959 91.4392 25.7577C91.7003 24.9718 92.8592 22.4702 92.3743 21.6843C92.1505 20.973 91.4019 20.5628 90.9544 19.966C90.4695 19.2547 89.9074 18.3223 89.5717 17.5364C88.6739 15.4051 88.1891 13.0528 87.2167 10.9216C86.7692 9.94917 85.946 8.90487 85.3119 8.00708C84.6006 6.99741 83.7801 6.25147 83.218 5.05531C83.0315 4.64505 82.7704 3.93375 83.0688 3.48619C83.1434 3.18781 83.2926 3.07592 83.5909 3.00133C84.0758 2.59107 85.4957 3.11322 85.9833 3.337C87.4032 3.89645 88.5621 4.45857 89.7582 5.2418C90.2804 5.61476 90.8798 6.32607 91.5511 6.54985H92.337C93.5705 6.81092 94.9158 6.62444 96.0747 6.96011C98.0914 7.59415 99.9242 8.56653 101.531 9.57621C106.502 12.7145 110.612 17.2007 113.378 22.5821C113.825 23.4426 114.012 24.2631 114.462 25.1609C115.248 27.0284 116.255 28.9359 117.041 30.7661C117.827 32.559 118.61 34.3918 119.731 35.8491C120.291 36.635 122.571 37.0452 123.618 37.4928C124.367 37.8285 125.56 38.1268 126.234 38.5398C127.542 39.3257 128.813 40.2581 130.047 41.1186C130.713 41.5182 132.62 42.4506 132.732 43.2365Z" fill="#6A7E91"/>
<path id="XMLID_28_" fill-rule="evenodd" clip-rule="evenodd" d="M93.9783 10.2021C93.3443 10.2021 92.894 10.2767 92.4092 10.3886V10.4632H92.4838C92.7821 11.06 93.307 11.4729 93.7172 12.0324C94.0156 12.6291 94.2767 13.2285 94.5777 13.8626L94.6523 13.788C95.1745 13.415 95.4382 12.8156 95.4382 11.8832C95.2144 11.6221 95.1771 11.361 94.9906 11.0973C94.7642 10.687 94.2793 10.5005 93.9783 10.2021Z" fill="#6A7E91"/>
<path id="XMLID_31_" d="M136.356 85.2033H137.142V81.3537H135.946L134.973 83.9698L133.926 81.3537H132.805V85.2033H133.553V82.2515H133.591L134.675 85.166H135.234L136.319 82.2515V85.2033H136.356ZM130.005 85.2033H130.828V81.9904H131.912V81.3191H128.849V81.9904H129.97V85.2033H130.005Z" fill="#FA8A3B"/>
</g>
</svg>
