<svg width="77" height="111" viewBox="0 0 77 111" fill="none" xmlns="http://www.w3.org/2000/svg">
<g id="XMLID_1_">
<path id="XMLID_11_" d="M7.17745 96.0754L0.569824 20.848H73.2076L66.6 96.0469L36.8326 104.424L7.17745 96.0754Z" fill="#1F72B5"/>
<g id="XMLID_10_" filter="url(#filter0_d_153_4375)">
<path d="M36.8887 98.0395L60.9317 91.2795L66.5999 27.0006H36.8887V98.0395Z" fill="#51A3DC"/>
</g>
<g id="XMLID_35_" filter="url(#filter1_d_153_4375)">
<path d="M13.2749 44.3639L12.3916 35.6681H61.387L60.8181 45.7512L40.108 55.0239H59.9629L57.8258 83.6239L37.8006 89.0839L17.0344 83.9712L15.7525 69.4681H24.9259L25.4386 77.1239L37.4581 79.407L48.5683 75.9397L49.081 63.6912H14.9553L14.3284 54.5912L36.8893 44.567L13.2749 44.3639Z" fill="#EBEBEB"/>
</g>
<g id="XMLID_2_">
<path id="XMLID_39_" d="M14.3267 54.5912L14.9536 63.6912H36.8875V44.567L14.3267 54.5912Z" fill="#CECECE"/>
<path id="XMLID_40_" d="M25.4371 77.1238L24.9243 69.468H15.751L17.0328 83.9711L36.8878 88.8522V79.2911L25.4371 77.1238Z" fill="#CECECE"/>
<path id="XMLID_41_" d="M12.3906 35.6681L13.2739 44.3639L36.8883 44.567V35.6681H12.3906Z" fill="#CECECE"/>
</g>
<g id="XMLID_36_">
<path id="XMLID_34_" d="M43.7244 3.89105V0.423706H30.0525V8.51214H39.4522V11.1121H29.7661V14.291H43.44V5.91214H33.7559V3.89105H43.7244Z" fill="black"/>
<path id="XMLID_38_" d="M18.9424 8.59949V11.1121H28.6285V14.291H14.9546V5.99949V0.423706H28.3421V3.89105H18.9424V8.59949Z" fill="black"/>
<path id="XMLID_37_" d="M58.8231 3.89105V0.423706H45.1492V8.51214H54.5509V11.1121H44.8647V14.291H58.5387V5.91214H48.8526V3.89105H58.8231Z" fill="black"/>
</g>
</g>
<defs>
<filter id="filter0_d_153_4375" x="26.8887" y="19.0006" width="49.7114" height="91.0389" filterUnits="userSpaceOnUse" color-interpolation-filters="sRGB">
<feFlood flood-opacity="0" result="BackgroundImageFix"/>
<feColorMatrix in="SourceAlpha" type="matrix" values="0 0 0 0 0 0 0 0 0 0 0 0 0 0 0 0 0 0 127 0" result="hardAlpha"/>
<feOffset dy="2"/>
<feGaussianBlur stdDeviation="5"/>
<feComposite in2="hardAlpha" operator="out"/>
<feColorMatrix type="matrix" values="0 0 0 0 0.121569 0 0 0 0 0.447059 0 0 0 0 0.709804 0 0 0 1 0"/>
<feBlend mode="normal" in2="BackgroundImageFix" result="effect1_dropShadow_153_4375"/>
<feBlend mode="normal" in="SourceGraphic" in2="effect1_dropShadow_153_4375" result="shape"/>
</filter>
<filter id="filter1_d_153_4375" x="2.3916" y="27.6681" width="68.9951" height="73.4158" filterUnits="userSpaceOnUse" color-interpolation-filters="sRGB">
<feFlood flood-opacity="0" result="BackgroundImageFix"/>
<feColorMatrix in="SourceAlpha" type="matrix" values="0 0 0 0 0 0 0 0 0 0 0 0 0 0 0 0 0 0 127 0" result="hardAlpha"/>
<feOffset dy="2"/>
<feGaussianBlur stdDeviation="5"/>
<feComposite in2="hardAlpha" operator="out"/>
<feColorMatrix type="matrix" values="0 0 0 0 0.121569 0 0 0 0 0.447059 0 0 0 0 0.709804 0 0 0 1 0"/>
<feBlend mode="normal" in2="BackgroundImageFix" result="effect1_dropShadow_153_4375"/>
<feBlend mode="normal" in="SourceGraphic" in2="effect1_dropShadow_153_4375" result="shape"/>
</filter>
</defs>
</svg>
