<svg width="88" height="91" viewBox="0 0 88 91" fill="none" xmlns="http://www.w3.org/2000/svg">
<g id="XMLID_1_">
<path id="XMLID_2_" d="M87.6654 0.424316H0.5V90.4243H87.6654V0.424316Z" fill="#F7DF1E"/>
<path id="XMLID_3_" d="M20.8794 67.2735L26.8019 63.5694C27.9481 65.6735 28.9883 67.4269 31.4719 67.4269C33.8706 67.4269 35.3778 66.4626 35.3778 62.6927V37.1584H42.6588V62.8242C42.6588 70.605 38.2435 74.1557 31.7903 74.1557C25.974 74.1557 22.5988 71.0434 20.8794 67.2735Z" fill="black"/>
<path id="XMLID_4_" d="M46.627 66.4626L52.5494 62.9119C54.1203 65.5421 56.1369 67.4708 59.7243 67.4708C62.7386 67.4708 64.6703 65.9147 64.6703 63.7667C64.6703 61.1804 62.6962 60.2818 59.3634 58.7695L57.5379 57.9585C52.2947 55.6571 48.7922 52.7421 48.7922 46.627C48.7922 40.9941 52.9527 36.6982 59.4484 36.6982C64.0759 36.6982 67.4087 38.364 69.8074 42.7037L64.1396 46.4517C62.8872 44.1503 61.5499 43.2297 59.4696 43.2297C57.3468 43.2297 55.9883 44.6325 55.9883 46.4517C55.9883 48.7092 57.3468 49.6297 60.4673 51.0106L62.2928 51.8215C68.4913 54.5613 71.9726 57.3448 71.9726 63.6352C71.9726 70.4078 66.8143 74.1119 59.9154 74.1119C53.1226 74.1558 48.7497 70.8243 46.627 66.4626Z" fill="black"/>
</g>
</svg>
