<svg width="74" height="105" viewBox="0 0 74 105" fill="none" xmlns="http://www.w3.org/2000/svg">
<g id="XMLID_1_">
<path id="XMLID_11_" d="M7.17745 96.0757L0.569824 20.8484H73.2076L66.6 96.0473L36.8326 104.424L7.17745 96.0757Z" fill="#E44D26"/>
<path id="XMLID_10_" d="M36.8887 98.0399L60.9317 91.2799L66.5999 27.001H36.8887V98.0399Z" fill="#F16529"/>
<path id="XMLID_9_" d="M36.8885 54.9084H24.839L24.0138 45.4611H36.8885V36.2473H36.8605H14.0713L14.2996 38.7011L16.5209 64.1242H36.8885V54.9084Z" fill="#EBEBEB"/>
<path id="XMLID_8_" d="M36.8883 78.8568L36.8603 78.8873L26.7195 76.0842L26.0645 68.7473H21.1354H16.9473L18.2011 83.22L36.8603 88.4768L36.8883 88.4484V78.8568Z" fill="#EBEBEB"/>
<path id="XMLID_7_" d="M7.31982 0.424316H11.9345V5.04744H16.1507V0.424316H20.7654V14.4359H16.1507V9.72744H11.9345V14.4359H7.31982V0.424316Z" fill="black"/>
<path id="XMLID_6_" d="M26.8615 5.07588H22.7876V0.424316H35.5502V5.07588H31.4763V14.4359H26.8615V5.07588Z" fill="black"/>
<path id="XMLID_5_" d="M37.6018 0.424316H42.4168L45.3792 5.36432L48.3395 0.424316H53.1545V14.4359H48.5678V7.50119L45.3771 12.4981H45.291L42.1004 7.50119V14.4643H37.5718V0.424316H37.6018Z" fill="black"/>
<path id="XMLID_4_" d="M55.4624 0.424316H60.0771V9.81275H66.5726V14.4359H55.4624V0.424316Z" fill="black"/>
<path id="XMLID_3_" d="M36.8613 54.9084V64.1242H48.0556L47.0021 76.0842L36.8613 78.8569V88.4769L55.4905 83.22L55.6327 81.66L57.7698 57.3927L57.9981 54.9084H55.5485H36.8613Z" fill="white"/>
<path id="XMLID_2_" d="M36.8613 36.2473V41.9673V45.4326V45.4611H58.7953H58.8233L59.0236 43.3811L59.4222 38.7011L59.6505 36.2473H36.8613Z" fill="white"/>
</g>
</svg>
