<svg width="135" height="50" viewBox="0 0 135 50" fill="none" xmlns="http://www.w3.org/2000/svg">
<g id="XMLID_1_">
<path id="XMLID_5_" d="M7.43561 24.6363C7.39876 29.246 10.684 31.9911 15.8882 30.7327V18.5371C10.6103 16.8981 7.47246 20.2521 7.43561 24.6363ZM16.0356 0.932617H23.1957V35.992C16.3305 37.1363 9.72579 37.8974 5.00065 35.1549C-1.05121 31.6487 -1.56979 20.5212 3.22905 15.5663C5.66401 13.0522 10.5734 11.2991 15.8145 12.4406V1.42729C15.8882 1.19898 15.8514 0.970669 16.0356 0.932617Z" fill="black"/>
<path id="XMLID_6_" d="M34.8574 0.932617H27.6973V8.66803H34.8574V0.932617Z" fill="black"/>
<path id="XMLID_9_" d="M120.962 31.0752C128.785 34.2009 129.636 16.6317 121.773 18.2326C116.866 19.2247 117.013 29.4743 120.962 31.0752ZM121.294 12.1362C127.272 11.4893 131.776 14.1937 133.584 18.3848C136.648 25.5495 133.4 33.7415 128.491 36.1823C125.945 37.4407 123.25 37.5549 120.851 37.3266C113.36 36.6416 108.671 28.7893 111.293 20.0265C111.699 18.6539 112.178 17.8168 112.401 17.3982C113.986 14.5362 116.719 12.6308 121.294 12.1362Z" fill="black"/>
<path id="XMLID_12_" d="M44.7499 28.2567C42.7572 31.6868 47.7403 32.5239 50.9492 31.5346V26.4274C48.5143 26.808 45.6713 26.6558 44.7499 28.2567ZM57.3354 36.3345C51.3941 36.677 42.3887 38.7726 39.1403 34.6956C37.2213 32.2956 37.4424 27.7212 39.1403 25.4734C41.3542 22.576 46.1161 21.9292 50.4701 21.5106C50.8755 20.5185 50.5807 18.8823 50.1384 18.2327C46.1899 17.2026 42.2413 18.8035 39.472 20.0619V14.3079C43.6786 12.3265 53.4605 10.1929 56.3746 14.8026C57.925 17.2026 57.3354 21.4345 57.3354 25.169V36.3345Z" fill="black"/>
<path id="XMLID_13_" d="M82.5428 36.677H75.3827V27.1123C75.3827 23.9486 75.8618 19.9858 74.2745 18.7273C73.0188 17.7353 70.031 18.2326 68.2226 18.7273V36.677H61.0625V13.7751C68.4069 11.7937 81.6188 9.69814 82.5796 19.2247C83.0219 23.9105 82.2111 30.923 82.5428 36.677Z" fill="black"/>
<path id="XMLID_16_" d="M93.2455 28.7514C94.4643 30.7709 97.7101 31.5319 100.406 30.2382C100.258 26.3895 100.221 22.4267 100.258 18.3877C94.0563 16.708 90.3289 23.9487 93.2455 28.7514ZM111.256 13.1257C110.63 15.1071 109.669 16.7841 108.858 18.5753C108.121 18.7275 107.492 18.2708 107.087 18.5753C106.939 26.6151 108.748 37.4762 105.647 43.2682C103.801 46.7364 100.369 48.9842 95.1277 49.3647C91.3265 49.6311 88.3361 48.9842 85.5695 47.878V40.9797C88.8547 42.9611 97.1204 44.562 99.4475 40.485C100.148 39.3027 100.074 38.047 100.408 36.2178C98.8946 36.2939 97.4547 37.0169 95.6094 37.0549C88.0808 37.1691 83.4294 30.9585 85.2378 22.3832C85.938 19.0672 87.8202 16.4009 90.3315 14.8C95.6068 11.4867 103.651 11.7178 111.256 13.1257Z" fill="black"/>
<path id="XMLID_17_" d="M34.8571 12.5928C34.8571 18.0424 34.8571 21.9671 34.8571 28.599C34.5623 35.1168 34.636 40.2973 32.3116 43.423C31.8694 44.0318 30.8717 44.9478 30.0978 45.5566C29.4344 46.0894 28.105 47.1575 27.4048 47.1956C26.6678 47.2336 24.7487 46.1274 23.8985 45.7088C22.7534 45.1761 21.7215 44.4124 20.5396 44.0699C23.272 42.3168 25.8543 41.0203 26.9257 37.476C27.8497 34.3884 27.7365 29.9689 27.7365 25.6256C27.7365 21.3583 27.7734 16.3654 27.7734 12.5928H34.8571Z" fill="black"/>
</g>
</svg>
