<svg width="27" height="27" viewBox="0 0 27 27" fill="none" xmlns="http://www.w3.org/2000/svg">
<g id="Iconsax/Bold/clock">
<path id="Vector" d="M13.0251 2.54382C7.04471 2.54382 2.17139 7.40799 2.17139 13.3772C2.17139 19.3463 7.04471 24.2105 13.0251 24.2105C19.0055 24.2105 23.8789 19.3463 23.8789 13.3772C23.8789 7.40799 19.0055 2.54382 13.0251 2.54382ZM17.7465 17.2447C17.6922 17.337 17.62 17.4176 17.5341 17.4818C17.4483 17.5461 17.3506 17.5927 17.2466 17.6189C17.1425 17.6451 17.0343 17.6504 16.9283 17.6345C16.8222 17.6186 16.7203 17.5818 16.6286 17.5263L13.2639 15.5222C12.4282 15.0238 11.8095 13.9297 11.8095 12.9655V8.52382C11.8095 8.07966 12.1785 7.71132 12.6235 7.71132C13.0685 7.71132 13.4376 8.07966 13.4376 8.52382V12.9655C13.4376 13.3555 13.7632 13.9297 14.0996 14.1247L17.4643 16.1288C17.855 16.3563 17.9853 16.8547 17.7465 17.2447Z" fill="black"/>
</g>
</svg>
